%TF.GenerationSoftware,KiCad,Pcbnew,5.1.9-73d0e3b20d~88~ubuntu20.04.1*%
%TF.CreationDate,2021-10-29T18:27:58+09:00*%
%TF.ProjectId,LED-Electroscope,4c45442d-456c-4656-9374-726f73636f70,V1.0.0*%
%TF.SameCoordinates,Original*%
%TF.FileFunction,Legend,Top*%
%TF.FilePolarity,Positive*%
%FSLAX46Y46*%
G04 Gerber Fmt 4.6, Leading zero omitted, Abs format (unit mm)*
G04 Created by KiCad (PCBNEW 5.1.9-73d0e3b20d~88~ubuntu20.04.1) date 2021-10-29 18:27:58*
%MOMM*%
%LPD*%
G01*
G04 APERTURE LIST*
%ADD10C,0.120000*%
%ADD11C,0.150000*%
G04 APERTURE END LIST*
D10*
%TO.C,R2*%
X177870000Y-106000000D02*
G75*
G03*
X177870000Y-106000000I-1370000J0D01*
G01*
X177870000Y-106000000D02*
X177940000Y-106000000D01*
%TO.C,R1*%
X159370000Y-105000000D02*
G75*
G03*
X159370000Y-105000000I-1370000J0D01*
G01*
X156630000Y-105000000D02*
X156560000Y-105000000D01*
%TO.C,Q2*%
X168661522Y-106338478D02*
G75*
G03*
X173100000Y-104500000I1838478J1838478D01*
G01*
X168661522Y-102661522D02*
G75*
G02*
X173100000Y-104500000I1838478J-1838478D01*
G01*
X168650000Y-102700000D02*
X168650000Y-106300000D01*
%TO.C,Q1*%
X161161522Y-107108478D02*
G75*
G03*
X165600000Y-105270000I1838478J1838478D01*
G01*
X161161522Y-103431522D02*
G75*
G02*
X165600000Y-105270000I1838478J-1838478D01*
G01*
X161150000Y-103470000D02*
X161150000Y-107070000D01*
%TO.C,D2*%
X190740000Y-105000462D02*
G75*
G02*
X196290000Y-103455170I2990000J462D01*
G01*
X190740000Y-104999538D02*
G75*
G03*
X196290000Y-106544830I2990000J-462D01*
G01*
X196230000Y-105000000D02*
G75*
G03*
X196230000Y-105000000I-2500000J0D01*
G01*
X196290000Y-106545000D02*
X196290000Y-103455000D01*
%TO.C,D1*%
X150910000Y-106140000D02*
X150910000Y-106470000D01*
X150910000Y-106470000D02*
X145470000Y-106470000D01*
X145470000Y-106470000D02*
X145470000Y-106140000D01*
X150910000Y-103860000D02*
X150910000Y-103530000D01*
X150910000Y-103530000D02*
X145470000Y-103530000D01*
X145470000Y-103530000D02*
X145470000Y-103860000D01*
X150010000Y-106470000D02*
X150010000Y-103530000D01*
X149890000Y-106470000D02*
X149890000Y-103530000D01*
X150130000Y-106470000D02*
X150130000Y-103530000D01*
%TO.C,C1*%
X141120000Y-106370000D02*
X135880000Y-106370000D01*
X141120000Y-103630000D02*
X135880000Y-103630000D01*
X141120000Y-106370000D02*
X141120000Y-106055000D01*
X141120000Y-103945000D02*
X141120000Y-103630000D01*
X135880000Y-106370000D02*
X135880000Y-106055000D01*
X135880000Y-103945000D02*
X135880000Y-103630000D01*
%TO.C,BT1*%
X199170000Y-107830000D02*
X201830000Y-107830000D01*
X199170000Y-105230000D02*
X199170000Y-107830000D01*
X201830000Y-105230000D02*
X201830000Y-107830000D01*
X199170000Y-105230000D02*
X201830000Y-105230000D01*
X199170000Y-103960000D02*
X199170000Y-102630000D01*
X199170000Y-102630000D02*
X200500000Y-102630000D01*
%TO.C,J1*%
D11*
X111452380Y-105333333D02*
X112166666Y-105333333D01*
X112309523Y-105380952D01*
X112404761Y-105476190D01*
X112452380Y-105619047D01*
X112452380Y-105714285D01*
X112452380Y-104333333D02*
X112452380Y-104904761D01*
X112452380Y-104619047D02*
X111452380Y-104619047D01*
X111595238Y-104714285D01*
X111690476Y-104809523D01*
X111738095Y-104904761D01*
%TO.C,R2*%
X177603333Y-104082380D02*
X177270000Y-103606190D01*
X177031904Y-104082380D02*
X177031904Y-103082380D01*
X177412857Y-103082380D01*
X177508095Y-103130000D01*
X177555714Y-103177619D01*
X177603333Y-103272857D01*
X177603333Y-103415714D01*
X177555714Y-103510952D01*
X177508095Y-103558571D01*
X177412857Y-103606190D01*
X177031904Y-103606190D01*
X177984285Y-103177619D02*
X178031904Y-103130000D01*
X178127142Y-103082380D01*
X178365238Y-103082380D01*
X178460476Y-103130000D01*
X178508095Y-103177619D01*
X178555714Y-103272857D01*
X178555714Y-103368095D01*
X178508095Y-103510952D01*
X177936666Y-104082380D01*
X178555714Y-104082380D01*
%TO.C,R1*%
X156563333Y-107822380D02*
X156230000Y-107346190D01*
X155991904Y-107822380D02*
X155991904Y-106822380D01*
X156372857Y-106822380D01*
X156468095Y-106870000D01*
X156515714Y-106917619D01*
X156563333Y-107012857D01*
X156563333Y-107155714D01*
X156515714Y-107250952D01*
X156468095Y-107298571D01*
X156372857Y-107346190D01*
X155991904Y-107346190D01*
X157515714Y-107822380D02*
X156944285Y-107822380D01*
X157230000Y-107822380D02*
X157230000Y-106822380D01*
X157134761Y-106965238D01*
X157039523Y-107060476D01*
X156944285Y-107108095D01*
%TO.C,Q2*%
X174607619Y-104595238D02*
X174560000Y-104690476D01*
X174464761Y-104785714D01*
X174321904Y-104928571D01*
X174274285Y-105023809D01*
X174274285Y-105119047D01*
X174512380Y-105071428D02*
X174464761Y-105166666D01*
X174369523Y-105261904D01*
X174179047Y-105309523D01*
X173845714Y-105309523D01*
X173655238Y-105261904D01*
X173560000Y-105166666D01*
X173512380Y-105071428D01*
X173512380Y-104880952D01*
X173560000Y-104785714D01*
X173655238Y-104690476D01*
X173845714Y-104642857D01*
X174179047Y-104642857D01*
X174369523Y-104690476D01*
X174464761Y-104785714D01*
X174512380Y-104880952D01*
X174512380Y-105071428D01*
X173607619Y-104261904D02*
X173560000Y-104214285D01*
X173512380Y-104119047D01*
X173512380Y-103880952D01*
X173560000Y-103785714D01*
X173607619Y-103738095D01*
X173702857Y-103690476D01*
X173798095Y-103690476D01*
X173940952Y-103738095D01*
X174512380Y-104309523D01*
X174512380Y-103690476D01*
%TO.C,Q1*%
X167107619Y-105365238D02*
X167060000Y-105460476D01*
X166964761Y-105555714D01*
X166821904Y-105698571D01*
X166774285Y-105793809D01*
X166774285Y-105889047D01*
X167012380Y-105841428D02*
X166964761Y-105936666D01*
X166869523Y-106031904D01*
X166679047Y-106079523D01*
X166345714Y-106079523D01*
X166155238Y-106031904D01*
X166060000Y-105936666D01*
X166012380Y-105841428D01*
X166012380Y-105650952D01*
X166060000Y-105555714D01*
X166155238Y-105460476D01*
X166345714Y-105412857D01*
X166679047Y-105412857D01*
X166869523Y-105460476D01*
X166964761Y-105555714D01*
X167012380Y-105650952D01*
X167012380Y-105841428D01*
X167012380Y-104460476D02*
X167012380Y-105031904D01*
X167012380Y-104746190D02*
X166012380Y-104746190D01*
X166155238Y-104841428D01*
X166250476Y-104936666D01*
X166298095Y-105031904D01*
%TO.C,D2*%
X197952380Y-107738095D02*
X196952380Y-107738095D01*
X196952380Y-107500000D01*
X197000000Y-107357142D01*
X197095238Y-107261904D01*
X197190476Y-107214285D01*
X197380952Y-107166666D01*
X197523809Y-107166666D01*
X197714285Y-107214285D01*
X197809523Y-107261904D01*
X197904761Y-107357142D01*
X197952380Y-107500000D01*
X197952380Y-107738095D01*
X197047619Y-106785714D02*
X197000000Y-106738095D01*
X196952380Y-106642857D01*
X196952380Y-106404761D01*
X197000000Y-106309523D01*
X197047619Y-106261904D01*
X197142857Y-106214285D01*
X197238095Y-106214285D01*
X197380952Y-106261904D01*
X197952380Y-106833333D01*
X197952380Y-106214285D01*
%TO.C,D1*%
X147451904Y-107922380D02*
X147451904Y-106922380D01*
X147690000Y-106922380D01*
X147832857Y-106970000D01*
X147928095Y-107065238D01*
X147975714Y-107160476D01*
X148023333Y-107350952D01*
X148023333Y-107493809D01*
X147975714Y-107684285D01*
X147928095Y-107779523D01*
X147832857Y-107874761D01*
X147690000Y-107922380D01*
X147451904Y-107922380D01*
X148975714Y-107922380D02*
X148404285Y-107922380D01*
X148690000Y-107922380D02*
X148690000Y-106922380D01*
X148594761Y-107065238D01*
X148499523Y-107160476D01*
X148404285Y-107208095D01*
X151738095Y-107352380D02*
X151738095Y-106352380D01*
X152309523Y-107352380D02*
X151880952Y-106780952D01*
X152309523Y-106352380D02*
X151738095Y-106923809D01*
%TO.C,C1*%
X138333333Y-107857142D02*
X138285714Y-107904761D01*
X138142857Y-107952380D01*
X138047619Y-107952380D01*
X137904761Y-107904761D01*
X137809523Y-107809523D01*
X137761904Y-107714285D01*
X137714285Y-107523809D01*
X137714285Y-107380952D01*
X137761904Y-107190476D01*
X137809523Y-107095238D01*
X137904761Y-107000000D01*
X138047619Y-106952380D01*
X138142857Y-106952380D01*
X138285714Y-107000000D01*
X138333333Y-107047619D01*
X139285714Y-107952380D02*
X138714285Y-107952380D01*
X139000000Y-107952380D02*
X139000000Y-106952380D01*
X138904761Y-107095238D01*
X138809523Y-107190476D01*
X138714285Y-107238095D01*
%TO.C,BT1*%
X197928571Y-104785714D02*
X197976190Y-104642857D01*
X198023809Y-104595238D01*
X198119047Y-104547619D01*
X198261904Y-104547619D01*
X198357142Y-104595238D01*
X198404761Y-104642857D01*
X198452380Y-104738095D01*
X198452380Y-105119047D01*
X197452380Y-105119047D01*
X197452380Y-104785714D01*
X197500000Y-104690476D01*
X197547619Y-104642857D01*
X197642857Y-104595238D01*
X197738095Y-104595238D01*
X197833333Y-104642857D01*
X197880952Y-104690476D01*
X197928571Y-104785714D01*
X197928571Y-105119047D01*
X197452380Y-104261904D02*
X197452380Y-103690476D01*
X198452380Y-103976190D02*
X197452380Y-103976190D01*
X198452380Y-102833333D02*
X198452380Y-103404761D01*
X198452380Y-103119047D02*
X197452380Y-103119047D01*
X197595238Y-103214285D01*
X197690476Y-103309523D01*
X197738095Y-103404761D01*
X202952380Y-105619047D02*
X202952380Y-105428571D01*
X202904761Y-105333333D01*
X202857142Y-105285714D01*
X202714285Y-105190476D01*
X202523809Y-105142857D01*
X202142857Y-105142857D01*
X202047619Y-105190476D01*
X202000000Y-105238095D01*
X201952380Y-105333333D01*
X201952380Y-105523809D01*
X202000000Y-105619047D01*
X202047619Y-105666666D01*
X202142857Y-105714285D01*
X202380952Y-105714285D01*
X202476190Y-105666666D01*
X202523809Y-105619047D01*
X202571428Y-105523809D01*
X202571428Y-105333333D01*
X202523809Y-105238095D01*
X202476190Y-105190476D01*
X202380952Y-105142857D01*
X201952380Y-104857142D02*
X202952380Y-104523809D01*
X201952380Y-104190476D01*
%TD*%
M02*
