%TF.GenerationSoftware,KiCad,Pcbnew,5.1.9-73d0e3b20d~88~ubuntu20.04.1*%
%TF.CreationDate,2021-10-29T18:27:58+09:00*%
%TF.ProjectId,LED-Electroscope,4c45442d-456c-4656-9374-726f73636f70,V1.0.0*%
%TF.SameCoordinates,Original*%
%TF.FileFunction,Copper,L2,Bot*%
%TF.FilePolarity,Positive*%
%FSLAX46Y46*%
G04 Gerber Fmt 4.6, Leading zero omitted, Abs format (unit mm)*
G04 Created by KiCad (PCBNEW 5.1.9-73d0e3b20d~88~ubuntu20.04.1) date 2021-10-29 18:27:58*
%MOMM*%
%LPD*%
G01*
G04 APERTURE LIST*
%TA.AperFunction,ComponentPad*%
%ADD10C,0.100000*%
%TD*%
%TA.AperFunction,ComponentPad*%
%ADD11O,1.600000X1.600000*%
%TD*%
%TA.AperFunction,ComponentPad*%
%ADD12C,1.600000*%
%TD*%
%TA.AperFunction,ComponentPad*%
%ADD13R,1.500000X1.050000*%
%TD*%
%TA.AperFunction,ComponentPad*%
%ADD14O,1.500000X1.050000*%
%TD*%
%TA.AperFunction,ComponentPad*%
%ADD15C,1.800000*%
%TD*%
%TA.AperFunction,ComponentPad*%
%ADD16R,1.800000X1.800000*%
%TD*%
%TA.AperFunction,ComponentPad*%
%ADD17O,1.800000X1.800000*%
%TD*%
%TA.AperFunction,ComponentPad*%
%ADD18O,1.700000X1.700000*%
%TD*%
%TA.AperFunction,ComponentPad*%
%ADD19R,1.700000X1.700000*%
%TD*%
%TA.AperFunction,ViaPad*%
%ADD20C,0.800000*%
%TD*%
%TA.AperFunction,Conductor*%
%ADD21C,0.254000*%
%TD*%
%TA.AperFunction,Conductor*%
%ADD22C,0.100000*%
%TD*%
G04 APERTURE END LIST*
%TA.AperFunction,ComponentPad*%
D10*
%TO.P,J1,1*%
%TO.N,Net-(C1-Pad2)*%
G36*
X103000000Y-108000000D02*
G01*
X103000000Y-102000000D01*
X113000000Y-102000000D01*
X113000000Y-108000000D01*
X103000000Y-108000000D01*
G37*
%TD.AperFunction*%
%TD*%
D11*
%TO.P,R2,2*%
%TO.N,Net-(D2-Pad2)*%
X179040000Y-106000000D03*
D12*
%TO.P,R2,1*%
%TO.N,Net-(Q1-Pad1)*%
X176500000Y-106000000D03*
%TD*%
D11*
%TO.P,R1,2*%
%TO.N,Net-(D1-Pad1)*%
X155460000Y-105000000D03*
D12*
%TO.P,R1,1*%
%TO.N,Net-(Q1-Pad3)*%
X158000000Y-105000000D03*
%TD*%
D13*
%TO.P,Q2,1*%
%TO.N,Net-(BT1-Pad1)*%
X170500000Y-103230000D03*
D14*
%TO.P,Q2,3*%
%TO.N,Net-(Q1-Pad2)*%
X170500000Y-105770000D03*
%TO.P,Q2,2*%
%TO.N,Net-(Q1-Pad1)*%
X170500000Y-104500000D03*
%TD*%
D13*
%TO.P,Q1,1*%
%TO.N,Net-(Q1-Pad1)*%
X163000000Y-104000000D03*
D14*
%TO.P,Q1,3*%
%TO.N,Net-(Q1-Pad3)*%
X163000000Y-106540000D03*
%TO.P,Q1,2*%
%TO.N,Net-(Q1-Pad2)*%
X163000000Y-105270000D03*
%TD*%
D15*
%TO.P,D2,2*%
%TO.N,Net-(D2-Pad2)*%
X192460000Y-105000000D03*
D16*
%TO.P,D2,1*%
%TO.N,GND*%
X195000000Y-105000000D03*
%TD*%
D17*
%TO.P,D1,2*%
%TO.N,Net-(C1-Pad1)*%
X144380000Y-105000000D03*
D16*
%TO.P,D1,1*%
%TO.N,Net-(D1-Pad1)*%
X152000000Y-105000000D03*
%TD*%
D12*
%TO.P,C1,2*%
%TO.N,Net-(C1-Pad2)*%
X136000000Y-105000000D03*
%TO.P,C1,1*%
%TO.N,Net-(C1-Pad1)*%
X141000000Y-105000000D03*
%TD*%
D18*
%TO.P,BT1,2*%
%TO.N,GND*%
X200500000Y-106500000D03*
D19*
%TO.P,BT1,1*%
%TO.N,Net-(BT1-Pad1)*%
X200500000Y-103960000D03*
%TD*%
D20*
%TO.N,GND*%
X138500000Y-103000000D03*
X141000000Y-103000000D03*
X143500000Y-103000000D03*
X146000000Y-103000000D03*
X148500000Y-103000000D03*
X151000000Y-103000000D03*
X138500000Y-107000000D03*
X141000000Y-107000000D03*
X143500000Y-107000000D03*
X146000000Y-107000000D03*
X148500000Y-107000000D03*
X151000000Y-107000000D03*
X167000000Y-107000000D03*
X174000000Y-107000000D03*
%TD*%
D21*
%TO.N,GND*%
X169111928Y-102705000D02*
X169111928Y-103755000D01*
X169124188Y-103879482D01*
X169160498Y-103999180D01*
X169195093Y-104063902D01*
X169131785Y-104272600D01*
X169109388Y-104500000D01*
X169131785Y-104727400D01*
X169198115Y-104946060D01*
X169299105Y-105135000D01*
X169198115Y-105323940D01*
X169131785Y-105542600D01*
X169109388Y-105770000D01*
X169131785Y-105997400D01*
X169198115Y-106216060D01*
X169305829Y-106417579D01*
X169450788Y-106594212D01*
X169627421Y-106739171D01*
X169828940Y-106846885D01*
X170047600Y-106913215D01*
X170218021Y-106930000D01*
X170781979Y-106930000D01*
X170952400Y-106913215D01*
X171171060Y-106846885D01*
X171372579Y-106739171D01*
X171549212Y-106594212D01*
X171694171Y-106417579D01*
X171801885Y-106216060D01*
X171868215Y-105997400D01*
X171890612Y-105770000D01*
X171868215Y-105542600D01*
X171801885Y-105323940D01*
X171700895Y-105135000D01*
X171801885Y-104946060D01*
X171868215Y-104727400D01*
X171890612Y-104500000D01*
X171868215Y-104272600D01*
X171804907Y-104063902D01*
X171839502Y-103999180D01*
X171875812Y-103879482D01*
X171888072Y-103755000D01*
X171888072Y-102705000D01*
X171883640Y-102660000D01*
X199197842Y-102660000D01*
X199119463Y-102755506D01*
X199060498Y-102865820D01*
X199024188Y-102985518D01*
X199011928Y-103110000D01*
X199011928Y-104810000D01*
X199024188Y-104934482D01*
X199060498Y-105054180D01*
X199119463Y-105164494D01*
X199198815Y-105261185D01*
X199295506Y-105340537D01*
X199405820Y-105399502D01*
X199486466Y-105423966D01*
X199402412Y-105499731D01*
X199228359Y-105733080D01*
X199103175Y-105995901D01*
X199058524Y-106143110D01*
X199179845Y-106373000D01*
X200373000Y-106373000D01*
X200373000Y-106353000D01*
X200627000Y-106353000D01*
X200627000Y-106373000D01*
X201820155Y-106373000D01*
X201941476Y-106143110D01*
X201896825Y-105995901D01*
X201771641Y-105733080D01*
X201597588Y-105499731D01*
X201513534Y-105423966D01*
X201594180Y-105399502D01*
X201704494Y-105340537D01*
X201801185Y-105261185D01*
X201880537Y-105164494D01*
X201939502Y-105054180D01*
X201975812Y-104934482D01*
X201988072Y-104810000D01*
X201988072Y-103110000D01*
X201975812Y-102985518D01*
X201939502Y-102865820D01*
X201880537Y-102755506D01*
X201802158Y-102660000D01*
X202340000Y-102660000D01*
X202340001Y-107340000D01*
X201717131Y-107340000D01*
X201771641Y-107266920D01*
X201896825Y-107004099D01*
X201941476Y-106856890D01*
X201820155Y-106627000D01*
X200627000Y-106627000D01*
X200627000Y-106647000D01*
X200373000Y-106647000D01*
X200373000Y-106627000D01*
X199179845Y-106627000D01*
X199058524Y-106856890D01*
X199103175Y-107004099D01*
X199228359Y-107266920D01*
X199282869Y-107340000D01*
X179554788Y-107340000D01*
X179719727Y-107271680D01*
X179954759Y-107114637D01*
X180154637Y-106914759D01*
X180311680Y-106679727D01*
X180419853Y-106418574D01*
X180475000Y-106141335D01*
X180475000Y-105858665D01*
X180419853Y-105581426D01*
X180311680Y-105320273D01*
X180154637Y-105085241D01*
X179954759Y-104885363D01*
X179900063Y-104848816D01*
X190925000Y-104848816D01*
X190925000Y-105151184D01*
X190983989Y-105447743D01*
X191099701Y-105727095D01*
X191267688Y-105978505D01*
X191481495Y-106192312D01*
X191732905Y-106360299D01*
X192012257Y-106476011D01*
X192308816Y-106535000D01*
X192611184Y-106535000D01*
X192907743Y-106476011D01*
X193187095Y-106360299D01*
X193438505Y-106192312D01*
X193504944Y-106125873D01*
X193510498Y-106144180D01*
X193569463Y-106254494D01*
X193648815Y-106351185D01*
X193745506Y-106430537D01*
X193855820Y-106489502D01*
X193975518Y-106525812D01*
X194100000Y-106538072D01*
X194714250Y-106535000D01*
X194873000Y-106376250D01*
X194873000Y-105127000D01*
X195127000Y-105127000D01*
X195127000Y-106376250D01*
X195285750Y-106535000D01*
X195900000Y-106538072D01*
X196024482Y-106525812D01*
X196144180Y-106489502D01*
X196254494Y-106430537D01*
X196351185Y-106351185D01*
X196430537Y-106254494D01*
X196489502Y-106144180D01*
X196525812Y-106024482D01*
X196538072Y-105900000D01*
X196535000Y-105285750D01*
X196376250Y-105127000D01*
X195127000Y-105127000D01*
X194873000Y-105127000D01*
X194853000Y-105127000D01*
X194853000Y-104873000D01*
X194873000Y-104873000D01*
X194873000Y-103623750D01*
X195127000Y-103623750D01*
X195127000Y-104873000D01*
X196376250Y-104873000D01*
X196535000Y-104714250D01*
X196538072Y-104100000D01*
X196525812Y-103975518D01*
X196489502Y-103855820D01*
X196430537Y-103745506D01*
X196351185Y-103648815D01*
X196254494Y-103569463D01*
X196144180Y-103510498D01*
X196024482Y-103474188D01*
X195900000Y-103461928D01*
X195285750Y-103465000D01*
X195127000Y-103623750D01*
X194873000Y-103623750D01*
X194714250Y-103465000D01*
X194100000Y-103461928D01*
X193975518Y-103474188D01*
X193855820Y-103510498D01*
X193745506Y-103569463D01*
X193648815Y-103648815D01*
X193569463Y-103745506D01*
X193510498Y-103855820D01*
X193504944Y-103874127D01*
X193438505Y-103807688D01*
X193187095Y-103639701D01*
X192907743Y-103523989D01*
X192611184Y-103465000D01*
X192308816Y-103465000D01*
X192012257Y-103523989D01*
X191732905Y-103639701D01*
X191481495Y-103807688D01*
X191267688Y-104021495D01*
X191099701Y-104272905D01*
X190983989Y-104552257D01*
X190925000Y-104848816D01*
X179900063Y-104848816D01*
X179719727Y-104728320D01*
X179458574Y-104620147D01*
X179181335Y-104565000D01*
X178898665Y-104565000D01*
X178621426Y-104620147D01*
X178360273Y-104728320D01*
X178125241Y-104885363D01*
X177925363Y-105085241D01*
X177770000Y-105317759D01*
X177614637Y-105085241D01*
X177414759Y-104885363D01*
X177179727Y-104728320D01*
X176918574Y-104620147D01*
X176641335Y-104565000D01*
X176358665Y-104565000D01*
X176081426Y-104620147D01*
X175820273Y-104728320D01*
X175585241Y-104885363D01*
X175385363Y-105085241D01*
X175228320Y-105320273D01*
X175120147Y-105581426D01*
X175065000Y-105858665D01*
X175065000Y-106141335D01*
X175120147Y-106418574D01*
X175228320Y-106679727D01*
X175385363Y-106914759D01*
X175585241Y-107114637D01*
X175820273Y-107271680D01*
X175985212Y-107340000D01*
X164069082Y-107340000D01*
X164194171Y-107187579D01*
X164301885Y-106986060D01*
X164368215Y-106767400D01*
X164390612Y-106540000D01*
X164368215Y-106312600D01*
X164301885Y-106093940D01*
X164200895Y-105905000D01*
X164301885Y-105716060D01*
X164368215Y-105497400D01*
X164390612Y-105270000D01*
X164368215Y-105042600D01*
X164304907Y-104833902D01*
X164339502Y-104769180D01*
X164375812Y-104649482D01*
X164388072Y-104525000D01*
X164388072Y-103475000D01*
X164375812Y-103350518D01*
X164339502Y-103230820D01*
X164280537Y-103120506D01*
X164201185Y-103023815D01*
X164104494Y-102944463D01*
X163994180Y-102885498D01*
X163874482Y-102849188D01*
X163750000Y-102836928D01*
X162250000Y-102836928D01*
X162125518Y-102849188D01*
X162005820Y-102885498D01*
X161895506Y-102944463D01*
X161798815Y-103023815D01*
X161719463Y-103120506D01*
X161660498Y-103230820D01*
X161624188Y-103350518D01*
X161611928Y-103475000D01*
X161611928Y-104525000D01*
X161624188Y-104649482D01*
X161660498Y-104769180D01*
X161695093Y-104833902D01*
X161631785Y-105042600D01*
X161609388Y-105270000D01*
X161631785Y-105497400D01*
X161698115Y-105716060D01*
X161799105Y-105905000D01*
X161698115Y-106093940D01*
X161631785Y-106312600D01*
X161609388Y-106540000D01*
X161631785Y-106767400D01*
X161698115Y-106986060D01*
X161805829Y-107187579D01*
X161930918Y-107340000D01*
X137627000Y-107340000D01*
X137627000Y-104858665D01*
X139565000Y-104858665D01*
X139565000Y-105141335D01*
X139620147Y-105418574D01*
X139728320Y-105679727D01*
X139885363Y-105914759D01*
X140085241Y-106114637D01*
X140320273Y-106271680D01*
X140581426Y-106379853D01*
X140858665Y-106435000D01*
X141141335Y-106435000D01*
X141418574Y-106379853D01*
X141679727Y-106271680D01*
X141914759Y-106114637D01*
X142114637Y-105914759D01*
X142271680Y-105679727D01*
X142379853Y-105418574D01*
X142435000Y-105141335D01*
X142435000Y-104858665D01*
X142433041Y-104848816D01*
X142845000Y-104848816D01*
X142845000Y-105151184D01*
X142903989Y-105447743D01*
X143019701Y-105727095D01*
X143187688Y-105978505D01*
X143401495Y-106192312D01*
X143652905Y-106360299D01*
X143932257Y-106476011D01*
X144228816Y-106535000D01*
X144531184Y-106535000D01*
X144827743Y-106476011D01*
X145107095Y-106360299D01*
X145358505Y-106192312D01*
X145572312Y-105978505D01*
X145740299Y-105727095D01*
X145856011Y-105447743D01*
X145915000Y-105151184D01*
X145915000Y-104848816D01*
X145856011Y-104552257D01*
X145740299Y-104272905D01*
X145624768Y-104100000D01*
X150461928Y-104100000D01*
X150461928Y-105900000D01*
X150474188Y-106024482D01*
X150510498Y-106144180D01*
X150569463Y-106254494D01*
X150648815Y-106351185D01*
X150745506Y-106430537D01*
X150855820Y-106489502D01*
X150975518Y-106525812D01*
X151100000Y-106538072D01*
X152900000Y-106538072D01*
X153024482Y-106525812D01*
X153144180Y-106489502D01*
X153254494Y-106430537D01*
X153351185Y-106351185D01*
X153430537Y-106254494D01*
X153489502Y-106144180D01*
X153525812Y-106024482D01*
X153538072Y-105900000D01*
X153538072Y-104858665D01*
X154025000Y-104858665D01*
X154025000Y-105141335D01*
X154080147Y-105418574D01*
X154188320Y-105679727D01*
X154345363Y-105914759D01*
X154545241Y-106114637D01*
X154780273Y-106271680D01*
X155041426Y-106379853D01*
X155318665Y-106435000D01*
X155601335Y-106435000D01*
X155878574Y-106379853D01*
X156139727Y-106271680D01*
X156374759Y-106114637D01*
X156574637Y-105914759D01*
X156730000Y-105682241D01*
X156885363Y-105914759D01*
X157085241Y-106114637D01*
X157320273Y-106271680D01*
X157581426Y-106379853D01*
X157858665Y-106435000D01*
X158141335Y-106435000D01*
X158418574Y-106379853D01*
X158679727Y-106271680D01*
X158914759Y-106114637D01*
X159114637Y-105914759D01*
X159271680Y-105679727D01*
X159379853Y-105418574D01*
X159435000Y-105141335D01*
X159435000Y-104858665D01*
X159379853Y-104581426D01*
X159271680Y-104320273D01*
X159114637Y-104085241D01*
X158914759Y-103885363D01*
X158679727Y-103728320D01*
X158418574Y-103620147D01*
X158141335Y-103565000D01*
X157858665Y-103565000D01*
X157581426Y-103620147D01*
X157320273Y-103728320D01*
X157085241Y-103885363D01*
X156885363Y-104085241D01*
X156730000Y-104317759D01*
X156574637Y-104085241D01*
X156374759Y-103885363D01*
X156139727Y-103728320D01*
X155878574Y-103620147D01*
X155601335Y-103565000D01*
X155318665Y-103565000D01*
X155041426Y-103620147D01*
X154780273Y-103728320D01*
X154545241Y-103885363D01*
X154345363Y-104085241D01*
X154188320Y-104320273D01*
X154080147Y-104581426D01*
X154025000Y-104858665D01*
X153538072Y-104858665D01*
X153538072Y-104100000D01*
X153525812Y-103975518D01*
X153489502Y-103855820D01*
X153430537Y-103745506D01*
X153351185Y-103648815D01*
X153254494Y-103569463D01*
X153144180Y-103510498D01*
X153024482Y-103474188D01*
X152900000Y-103461928D01*
X151100000Y-103461928D01*
X150975518Y-103474188D01*
X150855820Y-103510498D01*
X150745506Y-103569463D01*
X150648815Y-103648815D01*
X150569463Y-103745506D01*
X150510498Y-103855820D01*
X150474188Y-103975518D01*
X150461928Y-104100000D01*
X145624768Y-104100000D01*
X145572312Y-104021495D01*
X145358505Y-103807688D01*
X145107095Y-103639701D01*
X144827743Y-103523989D01*
X144531184Y-103465000D01*
X144228816Y-103465000D01*
X143932257Y-103523989D01*
X143652905Y-103639701D01*
X143401495Y-103807688D01*
X143187688Y-104021495D01*
X143019701Y-104272905D01*
X142903989Y-104552257D01*
X142845000Y-104848816D01*
X142433041Y-104848816D01*
X142379853Y-104581426D01*
X142271680Y-104320273D01*
X142114637Y-104085241D01*
X141914759Y-103885363D01*
X141679727Y-103728320D01*
X141418574Y-103620147D01*
X141141335Y-103565000D01*
X140858665Y-103565000D01*
X140581426Y-103620147D01*
X140320273Y-103728320D01*
X140085241Y-103885363D01*
X139885363Y-104085241D01*
X139728320Y-104320273D01*
X139620147Y-104581426D01*
X139565000Y-104858665D01*
X137627000Y-104858665D01*
X137627000Y-102660000D01*
X169116360Y-102660000D01*
X169111928Y-102705000D01*
%TA.AperFunction,Conductor*%
D22*
G36*
X169111928Y-102705000D02*
G01*
X169111928Y-103755000D01*
X169124188Y-103879482D01*
X169160498Y-103999180D01*
X169195093Y-104063902D01*
X169131785Y-104272600D01*
X169109388Y-104500000D01*
X169131785Y-104727400D01*
X169198115Y-104946060D01*
X169299105Y-105135000D01*
X169198115Y-105323940D01*
X169131785Y-105542600D01*
X169109388Y-105770000D01*
X169131785Y-105997400D01*
X169198115Y-106216060D01*
X169305829Y-106417579D01*
X169450788Y-106594212D01*
X169627421Y-106739171D01*
X169828940Y-106846885D01*
X170047600Y-106913215D01*
X170218021Y-106930000D01*
X170781979Y-106930000D01*
X170952400Y-106913215D01*
X171171060Y-106846885D01*
X171372579Y-106739171D01*
X171549212Y-106594212D01*
X171694171Y-106417579D01*
X171801885Y-106216060D01*
X171868215Y-105997400D01*
X171890612Y-105770000D01*
X171868215Y-105542600D01*
X171801885Y-105323940D01*
X171700895Y-105135000D01*
X171801885Y-104946060D01*
X171868215Y-104727400D01*
X171890612Y-104500000D01*
X171868215Y-104272600D01*
X171804907Y-104063902D01*
X171839502Y-103999180D01*
X171875812Y-103879482D01*
X171888072Y-103755000D01*
X171888072Y-102705000D01*
X171883640Y-102660000D01*
X199197842Y-102660000D01*
X199119463Y-102755506D01*
X199060498Y-102865820D01*
X199024188Y-102985518D01*
X199011928Y-103110000D01*
X199011928Y-104810000D01*
X199024188Y-104934482D01*
X199060498Y-105054180D01*
X199119463Y-105164494D01*
X199198815Y-105261185D01*
X199295506Y-105340537D01*
X199405820Y-105399502D01*
X199486466Y-105423966D01*
X199402412Y-105499731D01*
X199228359Y-105733080D01*
X199103175Y-105995901D01*
X199058524Y-106143110D01*
X199179845Y-106373000D01*
X200373000Y-106373000D01*
X200373000Y-106353000D01*
X200627000Y-106353000D01*
X200627000Y-106373000D01*
X201820155Y-106373000D01*
X201941476Y-106143110D01*
X201896825Y-105995901D01*
X201771641Y-105733080D01*
X201597588Y-105499731D01*
X201513534Y-105423966D01*
X201594180Y-105399502D01*
X201704494Y-105340537D01*
X201801185Y-105261185D01*
X201880537Y-105164494D01*
X201939502Y-105054180D01*
X201975812Y-104934482D01*
X201988072Y-104810000D01*
X201988072Y-103110000D01*
X201975812Y-102985518D01*
X201939502Y-102865820D01*
X201880537Y-102755506D01*
X201802158Y-102660000D01*
X202340000Y-102660000D01*
X202340001Y-107340000D01*
X201717131Y-107340000D01*
X201771641Y-107266920D01*
X201896825Y-107004099D01*
X201941476Y-106856890D01*
X201820155Y-106627000D01*
X200627000Y-106627000D01*
X200627000Y-106647000D01*
X200373000Y-106647000D01*
X200373000Y-106627000D01*
X199179845Y-106627000D01*
X199058524Y-106856890D01*
X199103175Y-107004099D01*
X199228359Y-107266920D01*
X199282869Y-107340000D01*
X179554788Y-107340000D01*
X179719727Y-107271680D01*
X179954759Y-107114637D01*
X180154637Y-106914759D01*
X180311680Y-106679727D01*
X180419853Y-106418574D01*
X180475000Y-106141335D01*
X180475000Y-105858665D01*
X180419853Y-105581426D01*
X180311680Y-105320273D01*
X180154637Y-105085241D01*
X179954759Y-104885363D01*
X179900063Y-104848816D01*
X190925000Y-104848816D01*
X190925000Y-105151184D01*
X190983989Y-105447743D01*
X191099701Y-105727095D01*
X191267688Y-105978505D01*
X191481495Y-106192312D01*
X191732905Y-106360299D01*
X192012257Y-106476011D01*
X192308816Y-106535000D01*
X192611184Y-106535000D01*
X192907743Y-106476011D01*
X193187095Y-106360299D01*
X193438505Y-106192312D01*
X193504944Y-106125873D01*
X193510498Y-106144180D01*
X193569463Y-106254494D01*
X193648815Y-106351185D01*
X193745506Y-106430537D01*
X193855820Y-106489502D01*
X193975518Y-106525812D01*
X194100000Y-106538072D01*
X194714250Y-106535000D01*
X194873000Y-106376250D01*
X194873000Y-105127000D01*
X195127000Y-105127000D01*
X195127000Y-106376250D01*
X195285750Y-106535000D01*
X195900000Y-106538072D01*
X196024482Y-106525812D01*
X196144180Y-106489502D01*
X196254494Y-106430537D01*
X196351185Y-106351185D01*
X196430537Y-106254494D01*
X196489502Y-106144180D01*
X196525812Y-106024482D01*
X196538072Y-105900000D01*
X196535000Y-105285750D01*
X196376250Y-105127000D01*
X195127000Y-105127000D01*
X194873000Y-105127000D01*
X194853000Y-105127000D01*
X194853000Y-104873000D01*
X194873000Y-104873000D01*
X194873000Y-103623750D01*
X195127000Y-103623750D01*
X195127000Y-104873000D01*
X196376250Y-104873000D01*
X196535000Y-104714250D01*
X196538072Y-104100000D01*
X196525812Y-103975518D01*
X196489502Y-103855820D01*
X196430537Y-103745506D01*
X196351185Y-103648815D01*
X196254494Y-103569463D01*
X196144180Y-103510498D01*
X196024482Y-103474188D01*
X195900000Y-103461928D01*
X195285750Y-103465000D01*
X195127000Y-103623750D01*
X194873000Y-103623750D01*
X194714250Y-103465000D01*
X194100000Y-103461928D01*
X193975518Y-103474188D01*
X193855820Y-103510498D01*
X193745506Y-103569463D01*
X193648815Y-103648815D01*
X193569463Y-103745506D01*
X193510498Y-103855820D01*
X193504944Y-103874127D01*
X193438505Y-103807688D01*
X193187095Y-103639701D01*
X192907743Y-103523989D01*
X192611184Y-103465000D01*
X192308816Y-103465000D01*
X192012257Y-103523989D01*
X191732905Y-103639701D01*
X191481495Y-103807688D01*
X191267688Y-104021495D01*
X191099701Y-104272905D01*
X190983989Y-104552257D01*
X190925000Y-104848816D01*
X179900063Y-104848816D01*
X179719727Y-104728320D01*
X179458574Y-104620147D01*
X179181335Y-104565000D01*
X178898665Y-104565000D01*
X178621426Y-104620147D01*
X178360273Y-104728320D01*
X178125241Y-104885363D01*
X177925363Y-105085241D01*
X177770000Y-105317759D01*
X177614637Y-105085241D01*
X177414759Y-104885363D01*
X177179727Y-104728320D01*
X176918574Y-104620147D01*
X176641335Y-104565000D01*
X176358665Y-104565000D01*
X176081426Y-104620147D01*
X175820273Y-104728320D01*
X175585241Y-104885363D01*
X175385363Y-105085241D01*
X175228320Y-105320273D01*
X175120147Y-105581426D01*
X175065000Y-105858665D01*
X175065000Y-106141335D01*
X175120147Y-106418574D01*
X175228320Y-106679727D01*
X175385363Y-106914759D01*
X175585241Y-107114637D01*
X175820273Y-107271680D01*
X175985212Y-107340000D01*
X164069082Y-107340000D01*
X164194171Y-107187579D01*
X164301885Y-106986060D01*
X164368215Y-106767400D01*
X164390612Y-106540000D01*
X164368215Y-106312600D01*
X164301885Y-106093940D01*
X164200895Y-105905000D01*
X164301885Y-105716060D01*
X164368215Y-105497400D01*
X164390612Y-105270000D01*
X164368215Y-105042600D01*
X164304907Y-104833902D01*
X164339502Y-104769180D01*
X164375812Y-104649482D01*
X164388072Y-104525000D01*
X164388072Y-103475000D01*
X164375812Y-103350518D01*
X164339502Y-103230820D01*
X164280537Y-103120506D01*
X164201185Y-103023815D01*
X164104494Y-102944463D01*
X163994180Y-102885498D01*
X163874482Y-102849188D01*
X163750000Y-102836928D01*
X162250000Y-102836928D01*
X162125518Y-102849188D01*
X162005820Y-102885498D01*
X161895506Y-102944463D01*
X161798815Y-103023815D01*
X161719463Y-103120506D01*
X161660498Y-103230820D01*
X161624188Y-103350518D01*
X161611928Y-103475000D01*
X161611928Y-104525000D01*
X161624188Y-104649482D01*
X161660498Y-104769180D01*
X161695093Y-104833902D01*
X161631785Y-105042600D01*
X161609388Y-105270000D01*
X161631785Y-105497400D01*
X161698115Y-105716060D01*
X161799105Y-105905000D01*
X161698115Y-106093940D01*
X161631785Y-106312600D01*
X161609388Y-106540000D01*
X161631785Y-106767400D01*
X161698115Y-106986060D01*
X161805829Y-107187579D01*
X161930918Y-107340000D01*
X137627000Y-107340000D01*
X137627000Y-104858665D01*
X139565000Y-104858665D01*
X139565000Y-105141335D01*
X139620147Y-105418574D01*
X139728320Y-105679727D01*
X139885363Y-105914759D01*
X140085241Y-106114637D01*
X140320273Y-106271680D01*
X140581426Y-106379853D01*
X140858665Y-106435000D01*
X141141335Y-106435000D01*
X141418574Y-106379853D01*
X141679727Y-106271680D01*
X141914759Y-106114637D01*
X142114637Y-105914759D01*
X142271680Y-105679727D01*
X142379853Y-105418574D01*
X142435000Y-105141335D01*
X142435000Y-104858665D01*
X142433041Y-104848816D01*
X142845000Y-104848816D01*
X142845000Y-105151184D01*
X142903989Y-105447743D01*
X143019701Y-105727095D01*
X143187688Y-105978505D01*
X143401495Y-106192312D01*
X143652905Y-106360299D01*
X143932257Y-106476011D01*
X144228816Y-106535000D01*
X144531184Y-106535000D01*
X144827743Y-106476011D01*
X145107095Y-106360299D01*
X145358505Y-106192312D01*
X145572312Y-105978505D01*
X145740299Y-105727095D01*
X145856011Y-105447743D01*
X145915000Y-105151184D01*
X145915000Y-104848816D01*
X145856011Y-104552257D01*
X145740299Y-104272905D01*
X145624768Y-104100000D01*
X150461928Y-104100000D01*
X150461928Y-105900000D01*
X150474188Y-106024482D01*
X150510498Y-106144180D01*
X150569463Y-106254494D01*
X150648815Y-106351185D01*
X150745506Y-106430537D01*
X150855820Y-106489502D01*
X150975518Y-106525812D01*
X151100000Y-106538072D01*
X152900000Y-106538072D01*
X153024482Y-106525812D01*
X153144180Y-106489502D01*
X153254494Y-106430537D01*
X153351185Y-106351185D01*
X153430537Y-106254494D01*
X153489502Y-106144180D01*
X153525812Y-106024482D01*
X153538072Y-105900000D01*
X153538072Y-104858665D01*
X154025000Y-104858665D01*
X154025000Y-105141335D01*
X154080147Y-105418574D01*
X154188320Y-105679727D01*
X154345363Y-105914759D01*
X154545241Y-106114637D01*
X154780273Y-106271680D01*
X155041426Y-106379853D01*
X155318665Y-106435000D01*
X155601335Y-106435000D01*
X155878574Y-106379853D01*
X156139727Y-106271680D01*
X156374759Y-106114637D01*
X156574637Y-105914759D01*
X156730000Y-105682241D01*
X156885363Y-105914759D01*
X157085241Y-106114637D01*
X157320273Y-106271680D01*
X157581426Y-106379853D01*
X157858665Y-106435000D01*
X158141335Y-106435000D01*
X158418574Y-106379853D01*
X158679727Y-106271680D01*
X158914759Y-106114637D01*
X159114637Y-105914759D01*
X159271680Y-105679727D01*
X159379853Y-105418574D01*
X159435000Y-105141335D01*
X159435000Y-104858665D01*
X159379853Y-104581426D01*
X159271680Y-104320273D01*
X159114637Y-104085241D01*
X158914759Y-103885363D01*
X158679727Y-103728320D01*
X158418574Y-103620147D01*
X158141335Y-103565000D01*
X157858665Y-103565000D01*
X157581426Y-103620147D01*
X157320273Y-103728320D01*
X157085241Y-103885363D01*
X156885363Y-104085241D01*
X156730000Y-104317759D01*
X156574637Y-104085241D01*
X156374759Y-103885363D01*
X156139727Y-103728320D01*
X155878574Y-103620147D01*
X155601335Y-103565000D01*
X155318665Y-103565000D01*
X155041426Y-103620147D01*
X154780273Y-103728320D01*
X154545241Y-103885363D01*
X154345363Y-104085241D01*
X154188320Y-104320273D01*
X154080147Y-104581426D01*
X154025000Y-104858665D01*
X153538072Y-104858665D01*
X153538072Y-104100000D01*
X153525812Y-103975518D01*
X153489502Y-103855820D01*
X153430537Y-103745506D01*
X153351185Y-103648815D01*
X153254494Y-103569463D01*
X153144180Y-103510498D01*
X153024482Y-103474188D01*
X152900000Y-103461928D01*
X151100000Y-103461928D01*
X150975518Y-103474188D01*
X150855820Y-103510498D01*
X150745506Y-103569463D01*
X150648815Y-103648815D01*
X150569463Y-103745506D01*
X150510498Y-103855820D01*
X150474188Y-103975518D01*
X150461928Y-104100000D01*
X145624768Y-104100000D01*
X145572312Y-104021495D01*
X145358505Y-103807688D01*
X145107095Y-103639701D01*
X144827743Y-103523989D01*
X144531184Y-103465000D01*
X144228816Y-103465000D01*
X143932257Y-103523989D01*
X143652905Y-103639701D01*
X143401495Y-103807688D01*
X143187688Y-104021495D01*
X143019701Y-104272905D01*
X142903989Y-104552257D01*
X142845000Y-104848816D01*
X142433041Y-104848816D01*
X142379853Y-104581426D01*
X142271680Y-104320273D01*
X142114637Y-104085241D01*
X141914759Y-103885363D01*
X141679727Y-103728320D01*
X141418574Y-103620147D01*
X141141335Y-103565000D01*
X140858665Y-103565000D01*
X140581426Y-103620147D01*
X140320273Y-103728320D01*
X140085241Y-103885363D01*
X139885363Y-104085241D01*
X139728320Y-104320273D01*
X139620147Y-104581426D01*
X139565000Y-104858665D01*
X137627000Y-104858665D01*
X137627000Y-102660000D01*
X169116360Y-102660000D01*
X169111928Y-102705000D01*
G37*
%TD.AperFunction*%
%TD*%
M02*
