%TF.GenerationSoftware,KiCad,Pcbnew,5.1.9-73d0e3b20d~88~ubuntu20.04.1*%
%TF.CreationDate,2021-10-30T14:27:51+09:00*%
%TF.ProjectId,LED-Electroscope,4c45442d-456c-4656-9374-726f73636f70,V1.0.1*%
%TF.SameCoordinates,Original*%
%TF.FileFunction,Legend,Bot*%
%TF.FilePolarity,Positive*%
%FSLAX46Y46*%
G04 Gerber Fmt 4.6, Leading zero omitted, Abs format (unit mm)*
G04 Created by KiCad (PCBNEW 5.1.9-73d0e3b20d~88~ubuntu20.04.1) date 2021-10-30 14:27:51*
%MOMM*%
%LPD*%
G01*
G04 APERTURE LIST*
%ADD10C,0.250000*%
%ADD11C,0.010000*%
G04 APERTURE END LIST*
D10*
X114955357Y-106282142D02*
X114041071Y-105939285D01*
X114955357Y-105596428D01*
X116441071Y-106282142D02*
X115526785Y-105939285D01*
X116441071Y-105596428D01*
X117926785Y-105482142D02*
X117926785Y-106682142D01*
X118212499Y-106682142D01*
X118383928Y-106625000D01*
X118498214Y-106510714D01*
X118555357Y-106396428D01*
X118612499Y-106167857D01*
X118612499Y-105996428D01*
X118555357Y-105767857D01*
X118498214Y-105653571D01*
X118383928Y-105539285D01*
X118212499Y-105482142D01*
X117926785Y-105482142D01*
X119069642Y-105825000D02*
X119641071Y-105825000D01*
X118955357Y-105482142D02*
X119355357Y-106682142D01*
X119755357Y-105482142D01*
X120155357Y-105482142D02*
X120155357Y-106682142D01*
X120841071Y-105482142D01*
X120841071Y-106682142D01*
X122041071Y-106625000D02*
X121926785Y-106682142D01*
X121755357Y-106682142D01*
X121583928Y-106625000D01*
X121469642Y-106510714D01*
X121412499Y-106396428D01*
X121355357Y-106167857D01*
X121355357Y-105996428D01*
X121412499Y-105767857D01*
X121469642Y-105653571D01*
X121583928Y-105539285D01*
X121755357Y-105482142D01*
X121869642Y-105482142D01*
X122041071Y-105539285D01*
X122098214Y-105596428D01*
X122098214Y-105996428D01*
X121869642Y-105996428D01*
X122612499Y-106110714D02*
X123012499Y-106110714D01*
X123183928Y-105482142D02*
X122612499Y-105482142D01*
X122612499Y-106682142D01*
X123183928Y-106682142D01*
X124383928Y-105482142D02*
X123983928Y-106053571D01*
X123698214Y-105482142D02*
X123698214Y-106682142D01*
X124155357Y-106682142D01*
X124269642Y-106625000D01*
X124326785Y-106567857D01*
X124383928Y-106453571D01*
X124383928Y-106282142D01*
X124326785Y-106167857D01*
X124269642Y-106110714D01*
X124155357Y-106053571D01*
X123698214Y-106053571D01*
X126726785Y-106282142D02*
X125812499Y-105939285D01*
X126726785Y-105596428D01*
X128212499Y-106282142D02*
X127298214Y-105939285D01*
X128212499Y-105596428D01*
X114955357Y-104232142D02*
X114041071Y-103889285D01*
X114955357Y-103546428D01*
X116441071Y-104232142D02*
X115526785Y-103889285D01*
X116441071Y-103546428D01*
X117869642Y-103775000D02*
X118441071Y-103775000D01*
X117755357Y-103432142D02*
X118155357Y-104632142D01*
X118555357Y-103432142D01*
X119641071Y-103546428D02*
X119583928Y-103489285D01*
X119412499Y-103432142D01*
X119298214Y-103432142D01*
X119126785Y-103489285D01*
X119012499Y-103603571D01*
X118955357Y-103717857D01*
X118898214Y-103946428D01*
X118898214Y-104117857D01*
X118955357Y-104346428D01*
X119012499Y-104460714D01*
X119126785Y-104575000D01*
X119298214Y-104632142D01*
X119412499Y-104632142D01*
X119583928Y-104575000D01*
X119641071Y-104517857D01*
X121412499Y-102975000D02*
X121355357Y-103032142D01*
X121241071Y-103203571D01*
X121183928Y-103317857D01*
X121126785Y-103489285D01*
X121069642Y-103775000D01*
X121069642Y-104003571D01*
X121126785Y-104289285D01*
X121183928Y-104460714D01*
X121241071Y-104575000D01*
X121355357Y-104746428D01*
X121412499Y-104803571D01*
X121869642Y-103432142D02*
X121869642Y-104632142D01*
X121869642Y-104060714D02*
X122555357Y-104060714D01*
X122555357Y-103432142D02*
X122555357Y-104632142D01*
X123355357Y-104632142D02*
X123583928Y-104632142D01*
X123698214Y-104575000D01*
X123812499Y-104460714D01*
X123869642Y-104232142D01*
X123869642Y-103832142D01*
X123812499Y-103603571D01*
X123698214Y-103489285D01*
X123583928Y-103432142D01*
X123355357Y-103432142D01*
X123241071Y-103489285D01*
X123126785Y-103603571D01*
X123069642Y-103832142D01*
X123069642Y-104232142D01*
X123126785Y-104460714D01*
X123241071Y-104575000D01*
X123355357Y-104632142D01*
X124212499Y-104632142D02*
X124898214Y-104632142D01*
X124555357Y-103432142D02*
X124555357Y-104632142D01*
X125183928Y-102975000D02*
X125241071Y-103032142D01*
X125355357Y-103203571D01*
X125412499Y-103317857D01*
X125469642Y-103489285D01*
X125526785Y-103775000D01*
X125526785Y-104003571D01*
X125469642Y-104289285D01*
X125412499Y-104460714D01*
X125355357Y-104575000D01*
X125241071Y-104746428D01*
X125183928Y-104803571D01*
X127926785Y-104232142D02*
X127012499Y-103889285D01*
X127926785Y-103546428D01*
X129412499Y-104232142D02*
X128498214Y-103889285D01*
X129412499Y-103546428D01*
X174176785Y-102547619D02*
X173700595Y-102547619D01*
X173700595Y-103547619D01*
X174510119Y-103071428D02*
X174843452Y-103071428D01*
X174986309Y-102547619D02*
X174510119Y-102547619D01*
X174510119Y-103547619D01*
X174986309Y-103547619D01*
X175414880Y-102547619D02*
X175414880Y-103547619D01*
X175652976Y-103547619D01*
X175795833Y-103500000D01*
X175891071Y-103404761D01*
X175938690Y-103309523D01*
X175986309Y-103119047D01*
X175986309Y-102976190D01*
X175938690Y-102785714D01*
X175891071Y-102690476D01*
X175795833Y-102595238D01*
X175652976Y-102547619D01*
X175414880Y-102547619D01*
X176414880Y-102928571D02*
X177176785Y-102928571D01*
X177652976Y-103071428D02*
X177986309Y-103071428D01*
X178129166Y-102547619D02*
X177652976Y-102547619D01*
X177652976Y-103547619D01*
X178129166Y-103547619D01*
X178700595Y-102547619D02*
X178605357Y-102595238D01*
X178557738Y-102690476D01*
X178557738Y-103547619D01*
X179462500Y-102595238D02*
X179367261Y-102547619D01*
X179176785Y-102547619D01*
X179081547Y-102595238D01*
X179033928Y-102690476D01*
X179033928Y-103071428D01*
X179081547Y-103166666D01*
X179176785Y-103214285D01*
X179367261Y-103214285D01*
X179462500Y-103166666D01*
X179510119Y-103071428D01*
X179510119Y-102976190D01*
X179033928Y-102880952D01*
X180367261Y-102595238D02*
X180272023Y-102547619D01*
X180081547Y-102547619D01*
X179986309Y-102595238D01*
X179938690Y-102642857D01*
X179891071Y-102738095D01*
X179891071Y-103023809D01*
X179938690Y-103119047D01*
X179986309Y-103166666D01*
X180081547Y-103214285D01*
X180272023Y-103214285D01*
X180367261Y-103166666D01*
X180652976Y-103214285D02*
X181033928Y-103214285D01*
X180795833Y-103547619D02*
X180795833Y-102690476D01*
X180843452Y-102595238D01*
X180938690Y-102547619D01*
X181033928Y-102547619D01*
X181367261Y-102547619D02*
X181367261Y-103214285D01*
X181367261Y-103023809D02*
X181414880Y-103119047D01*
X181462500Y-103166666D01*
X181557738Y-103214285D01*
X181652976Y-103214285D01*
X182129166Y-102547619D02*
X182033928Y-102595238D01*
X181986309Y-102642857D01*
X181938690Y-102738095D01*
X181938690Y-103023809D01*
X181986309Y-103119047D01*
X182033928Y-103166666D01*
X182129166Y-103214285D01*
X182272023Y-103214285D01*
X182367261Y-103166666D01*
X182414880Y-103119047D01*
X182462500Y-103023809D01*
X182462500Y-102738095D01*
X182414880Y-102642857D01*
X182367261Y-102595238D01*
X182272023Y-102547619D01*
X182129166Y-102547619D01*
X182843452Y-102595238D02*
X182938690Y-102547619D01*
X183129166Y-102547619D01*
X183224404Y-102595238D01*
X183272023Y-102690476D01*
X183272023Y-102738095D01*
X183224404Y-102833333D01*
X183129166Y-102880952D01*
X182986309Y-102880952D01*
X182891071Y-102928571D01*
X182843452Y-103023809D01*
X182843452Y-103071428D01*
X182891071Y-103166666D01*
X182986309Y-103214285D01*
X183129166Y-103214285D01*
X183224404Y-103166666D01*
X184129166Y-102595238D02*
X184033928Y-102547619D01*
X183843452Y-102547619D01*
X183748214Y-102595238D01*
X183700595Y-102642857D01*
X183652976Y-102738095D01*
X183652976Y-103023809D01*
X183700595Y-103119047D01*
X183748214Y-103166666D01*
X183843452Y-103214285D01*
X184033928Y-103214285D01*
X184129166Y-103166666D01*
X184700595Y-102547619D02*
X184605357Y-102595238D01*
X184557738Y-102642857D01*
X184510119Y-102738095D01*
X184510119Y-103023809D01*
X184557738Y-103119047D01*
X184605357Y-103166666D01*
X184700595Y-103214285D01*
X184843452Y-103214285D01*
X184938690Y-103166666D01*
X184986309Y-103119047D01*
X185033928Y-103023809D01*
X185033928Y-102738095D01*
X184986309Y-102642857D01*
X184938690Y-102595238D01*
X184843452Y-102547619D01*
X184700595Y-102547619D01*
X185462500Y-103214285D02*
X185462500Y-102214285D01*
X185462500Y-103166666D02*
X185557738Y-103214285D01*
X185748214Y-103214285D01*
X185843452Y-103166666D01*
X185891071Y-103119047D01*
X185938690Y-103023809D01*
X185938690Y-102738095D01*
X185891071Y-102642857D01*
X185843452Y-102595238D01*
X185748214Y-102547619D01*
X185557738Y-102547619D01*
X185462500Y-102595238D01*
X186748214Y-102595238D02*
X186652976Y-102547619D01*
X186462500Y-102547619D01*
X186367261Y-102595238D01*
X186319642Y-102690476D01*
X186319642Y-103071428D01*
X186367261Y-103166666D01*
X186462500Y-103214285D01*
X186652976Y-103214285D01*
X186748214Y-103166666D01*
X186795833Y-103071428D01*
X186795833Y-102976190D01*
X186319642Y-102880952D01*
X187938690Y-103452380D02*
X187986309Y-103500000D01*
X188081547Y-103547619D01*
X188319642Y-103547619D01*
X188414880Y-103500000D01*
X188462500Y-103452380D01*
X188510119Y-103357142D01*
X188510119Y-103261904D01*
X188462500Y-103119047D01*
X187891071Y-102547619D01*
X188510119Y-102547619D01*
X189462500Y-102547619D02*
X188891071Y-102547619D01*
X189176785Y-102547619D02*
X189176785Y-103547619D01*
X189081547Y-103404761D01*
X188986309Y-103309523D01*
X188891071Y-103261904D01*
X190414880Y-102547619D02*
X189843452Y-102547619D01*
X190129166Y-102547619D02*
X190129166Y-103547619D01*
X190033928Y-103404761D01*
X189938690Y-103309523D01*
X189843452Y-103261904D01*
X191033928Y-103547619D02*
X191129166Y-103547619D01*
X191224404Y-103500000D01*
X191272023Y-103452380D01*
X191319642Y-103357142D01*
X191367261Y-103166666D01*
X191367261Y-102928571D01*
X191319642Y-102738095D01*
X191272023Y-102642857D01*
X191224404Y-102595238D01*
X191129166Y-102547619D01*
X191033928Y-102547619D01*
X190938690Y-102595238D01*
X190891071Y-102642857D01*
X190843452Y-102738095D01*
X190795833Y-102928571D01*
X190795833Y-103166666D01*
X190843452Y-103357142D01*
X190891071Y-103452380D01*
X190938690Y-103500000D01*
X191033928Y-103547619D01*
X191748214Y-103452380D02*
X191795833Y-103500000D01*
X191891071Y-103547619D01*
X192129166Y-103547619D01*
X192224404Y-103500000D01*
X192272023Y-103452380D01*
X192319642Y-103357142D01*
X192319642Y-103261904D01*
X192272023Y-103119047D01*
X191700595Y-102547619D01*
X192319642Y-102547619D01*
X192795833Y-102547619D02*
X192986309Y-102547619D01*
X193081547Y-102595238D01*
X193129166Y-102642857D01*
X193224404Y-102785714D01*
X193272023Y-102976190D01*
X193272023Y-103357142D01*
X193224404Y-103452380D01*
X193176785Y-103500000D01*
X193081547Y-103547619D01*
X192891071Y-103547619D01*
X192795833Y-103500000D01*
X192748214Y-103452380D01*
X192700595Y-103357142D01*
X192700595Y-103119047D01*
X192748214Y-103023809D01*
X192795833Y-102976190D01*
X192891071Y-102928571D01*
X193081547Y-102928571D01*
X193176785Y-102976190D01*
X193224404Y-103023809D01*
X193272023Y-103119047D01*
X194319642Y-103547619D02*
X194652976Y-102547619D01*
X194986309Y-103547619D01*
X195843452Y-102547619D02*
X195272023Y-102547619D01*
X195557738Y-102547619D02*
X195557738Y-103547619D01*
X195462500Y-103404761D01*
X195367261Y-103309523D01*
X195272023Y-103261904D01*
X196272023Y-102642857D02*
X196319642Y-102595238D01*
X196272023Y-102547619D01*
X196224404Y-102595238D01*
X196272023Y-102642857D01*
X196272023Y-102547619D01*
X196938690Y-103547619D02*
X197033928Y-103547619D01*
X197129166Y-103500000D01*
X197176785Y-103452380D01*
X197224404Y-103357142D01*
X197272023Y-103166666D01*
X197272023Y-102928571D01*
X197224404Y-102738095D01*
X197176785Y-102642857D01*
X197129166Y-102595238D01*
X197033928Y-102547619D01*
X196938690Y-102547619D01*
X196843452Y-102595238D01*
X196795833Y-102642857D01*
X196748214Y-102738095D01*
X196700595Y-102928571D01*
X196700595Y-103166666D01*
X196748214Y-103357142D01*
X196795833Y-103452380D01*
X196843452Y-103500000D01*
X196938690Y-103547619D01*
X197700595Y-102642857D02*
X197748214Y-102595238D01*
X197700595Y-102547619D01*
X197652976Y-102595238D01*
X197700595Y-102642857D01*
X197700595Y-102547619D01*
X198700595Y-102547619D02*
X198129166Y-102547619D01*
X198414880Y-102547619D02*
X198414880Y-103547619D01*
X198319642Y-103404761D01*
X198224404Y-103309523D01*
X198129166Y-103261904D01*
D11*
%TO.C,L1*%
G36*
X185247305Y-106499211D02*
G01*
X185267733Y-106475456D01*
X185267733Y-105197461D01*
X185267691Y-105051777D01*
X185267566Y-104910779D01*
X185267365Y-104775388D01*
X185267091Y-104646529D01*
X185266750Y-104525122D01*
X185266345Y-104412092D01*
X185265883Y-104308361D01*
X185265366Y-104214851D01*
X185264801Y-104132485D01*
X185264192Y-104062185D01*
X185263544Y-104004874D01*
X185262860Y-103961476D01*
X185262147Y-103932911D01*
X185261409Y-103920104D01*
X185261202Y-103919467D01*
X185255705Y-103926317D01*
X185241207Y-103946325D01*
X185218271Y-103978677D01*
X185187463Y-104022558D01*
X185149347Y-104077153D01*
X185104488Y-104141649D01*
X185053449Y-104215231D01*
X184996797Y-104297085D01*
X184935096Y-104386396D01*
X184868909Y-104482350D01*
X184798803Y-104584132D01*
X184725341Y-104690929D01*
X184649088Y-104801926D01*
X184622264Y-104841004D01*
X184545010Y-104953655D01*
X184470332Y-105062700D01*
X184398800Y-105167298D01*
X184330984Y-105266610D01*
X184267454Y-105359796D01*
X184208781Y-105446017D01*
X184155533Y-105524432D01*
X184108282Y-105594203D01*
X184067597Y-105654488D01*
X184034049Y-105704448D01*
X184008207Y-105743244D01*
X183990641Y-105770035D01*
X183981922Y-105783982D01*
X183981096Y-105785589D01*
X183973435Y-105823282D01*
X183974414Y-105866986D01*
X183983553Y-105908450D01*
X183989033Y-105921833D01*
X183997379Y-105936104D01*
X184014310Y-105962547D01*
X184038689Y-105999472D01*
X184069379Y-106045188D01*
X184105241Y-106098004D01*
X184145138Y-106156230D01*
X184187933Y-106218173D01*
X184202630Y-106239333D01*
X184399900Y-106522967D01*
X185226877Y-106522967D01*
X185247305Y-106499211D01*
G37*
X185247305Y-106499211D02*
X185267733Y-106475456D01*
X185267733Y-105197461D01*
X185267691Y-105051777D01*
X185267566Y-104910779D01*
X185267365Y-104775388D01*
X185267091Y-104646529D01*
X185266750Y-104525122D01*
X185266345Y-104412092D01*
X185265883Y-104308361D01*
X185265366Y-104214851D01*
X185264801Y-104132485D01*
X185264192Y-104062185D01*
X185263544Y-104004874D01*
X185262860Y-103961476D01*
X185262147Y-103932911D01*
X185261409Y-103920104D01*
X185261202Y-103919467D01*
X185255705Y-103926317D01*
X185241207Y-103946325D01*
X185218271Y-103978677D01*
X185187463Y-104022558D01*
X185149347Y-104077153D01*
X185104488Y-104141649D01*
X185053449Y-104215231D01*
X184996797Y-104297085D01*
X184935096Y-104386396D01*
X184868909Y-104482350D01*
X184798803Y-104584132D01*
X184725341Y-104690929D01*
X184649088Y-104801926D01*
X184622264Y-104841004D01*
X184545010Y-104953655D01*
X184470332Y-105062700D01*
X184398800Y-105167298D01*
X184330984Y-105266610D01*
X184267454Y-105359796D01*
X184208781Y-105446017D01*
X184155533Y-105524432D01*
X184108282Y-105594203D01*
X184067597Y-105654488D01*
X184034049Y-105704448D01*
X184008207Y-105743244D01*
X183990641Y-105770035D01*
X183981922Y-105783982D01*
X183981096Y-105785589D01*
X183973435Y-105823282D01*
X183974414Y-105866986D01*
X183983553Y-105908450D01*
X183989033Y-105921833D01*
X183997379Y-105936104D01*
X184014310Y-105962547D01*
X184038689Y-105999472D01*
X184069379Y-106045188D01*
X184105241Y-106098004D01*
X184145138Y-106156230D01*
X184187933Y-106218173D01*
X184202630Y-106239333D01*
X184399900Y-106522967D01*
X185226877Y-106522967D01*
X185247305Y-106499211D01*
G36*
X182981133Y-106173510D02*
G01*
X183077357Y-106155103D01*
X183168175Y-106122792D01*
X183252191Y-106077112D01*
X183328008Y-106018599D01*
X183394232Y-105947786D01*
X183449466Y-105865210D01*
X183464207Y-105837167D01*
X183498553Y-105755111D01*
X183521082Y-105670250D01*
X183532713Y-105578344D01*
X183534867Y-105511200D01*
X183532801Y-105438309D01*
X183525659Y-105376128D01*
X183512148Y-105318859D01*
X183490973Y-105260707D01*
X183467465Y-105209284D01*
X183417187Y-105124988D01*
X183354365Y-105051553D01*
X183280074Y-104989778D01*
X183195392Y-104940461D01*
X183101392Y-104904402D01*
X183035357Y-104888365D01*
X183006541Y-104884130D01*
X182968585Y-104880876D01*
X182919774Y-104878532D01*
X182858395Y-104877029D01*
X182782732Y-104876298D01*
X182735455Y-104876200D01*
X182499133Y-104876200D01*
X182499429Y-104725917D01*
X182501158Y-104635423D01*
X182506352Y-104558953D01*
X182515599Y-104493842D01*
X182529490Y-104437428D01*
X182548612Y-104387045D01*
X182573555Y-104340030D01*
X182590567Y-104313769D01*
X182622139Y-104277955D01*
X182665010Y-104243198D01*
X182713765Y-104213271D01*
X182762990Y-104191944D01*
X182767534Y-104190491D01*
X182828009Y-104177617D01*
X182894612Y-104173074D01*
X182960649Y-104176851D01*
X183019428Y-104188935D01*
X183025748Y-104190967D01*
X183096301Y-104223335D01*
X183157274Y-104269264D01*
X183207972Y-104327898D01*
X183247698Y-104398383D01*
X183275757Y-104479863D01*
X183281613Y-104505427D01*
X183288165Y-104541150D01*
X183292936Y-104574381D01*
X183294981Y-104598441D01*
X183295000Y-104600072D01*
X183296786Y-104622499D01*
X183303824Y-104638083D01*
X183318632Y-104648022D01*
X183343731Y-104653519D01*
X183381639Y-104655772D01*
X183412520Y-104656067D01*
X183460538Y-104655662D01*
X183494031Y-104653096D01*
X183515410Y-104646347D01*
X183527082Y-104633388D01*
X183531456Y-104612195D01*
X183530940Y-104580745D01*
X183529408Y-104557822D01*
X183514560Y-104451354D01*
X183486105Y-104350132D01*
X183444992Y-104256130D01*
X183392167Y-104171326D01*
X183328577Y-104097694D01*
X183293810Y-104066320D01*
X183248972Y-104034308D01*
X183194012Y-104002719D01*
X183135493Y-103974875D01*
X183079977Y-103954098D01*
X183062167Y-103949033D01*
X183018072Y-103940815D01*
X182963519Y-103935069D01*
X182904842Y-103932081D01*
X182848375Y-103932139D01*
X182800451Y-103935528D01*
X182791472Y-103936783D01*
X182691591Y-103960555D01*
X182599991Y-103998800D01*
X182517416Y-104050826D01*
X182444613Y-104115942D01*
X182382326Y-104193457D01*
X182331301Y-104282678D01*
X182292284Y-104382915D01*
X182285406Y-104406300D01*
X182281707Y-104419915D01*
X182278527Y-104433068D01*
X182275826Y-104447091D01*
X182273565Y-104463319D01*
X182271704Y-104483086D01*
X182270204Y-104507724D01*
X182269025Y-104538567D01*
X182268128Y-104576950D01*
X182267472Y-104624206D01*
X182267020Y-104681668D01*
X182266730Y-104750670D01*
X182266563Y-104832547D01*
X182266480Y-104928630D01*
X182266441Y-105040255D01*
X182266440Y-105045534D01*
X182266430Y-105113267D01*
X182497419Y-105113267D01*
X182713431Y-105113267D01*
X182796936Y-105113710D01*
X182865101Y-105115084D01*
X182919496Y-105117458D01*
X182961691Y-105120899D01*
X182992847Y-105125398D01*
X183071938Y-105148037D01*
X183139965Y-105183446D01*
X183196660Y-105231383D01*
X183241756Y-105291604D01*
X183274986Y-105363869D01*
X183282547Y-105387674D01*
X183291477Y-105435569D01*
X183294839Y-105493597D01*
X183292908Y-105556001D01*
X183285964Y-105617022D01*
X183274283Y-105670901D01*
X183267953Y-105690228D01*
X183232647Y-105762468D01*
X183185193Y-105824074D01*
X183126932Y-105873650D01*
X183059207Y-105909797D01*
X183055556Y-105911243D01*
X183012760Y-105923065D01*
X182959488Y-105930659D01*
X182901721Y-105933786D01*
X182845440Y-105932209D01*
X182796626Y-105925691D01*
X182782116Y-105922113D01*
X182708879Y-105894028D01*
X182647350Y-105854973D01*
X182596630Y-105803998D01*
X182555820Y-105740156D01*
X182524022Y-105662500D01*
X182518244Y-105643799D01*
X182514041Y-105624905D01*
X182510562Y-105598390D01*
X182507706Y-105562493D01*
X182505368Y-105515451D01*
X182503445Y-105455503D01*
X182501834Y-105380886D01*
X182501418Y-105356683D01*
X182497419Y-105113267D01*
X182266430Y-105113267D01*
X182266423Y-105157908D01*
X182266458Y-105254696D01*
X182266584Y-105337245D01*
X182266840Y-105406901D01*
X182267264Y-105465013D01*
X182267895Y-105512926D01*
X182268774Y-105551988D01*
X182269938Y-105583546D01*
X182271426Y-105608946D01*
X182273278Y-105629537D01*
X182275533Y-105646665D01*
X182278229Y-105661676D01*
X182281405Y-105675919D01*
X182285101Y-105690739D01*
X182285109Y-105690772D01*
X182318797Y-105793825D01*
X182364219Y-105886027D01*
X182420743Y-105966643D01*
X182487733Y-106034943D01*
X182564556Y-106090193D01*
X182650577Y-106131662D01*
X182673976Y-106139965D01*
X182778046Y-106166477D01*
X182880897Y-106177480D01*
X182981133Y-106173510D01*
G37*
X182981133Y-106173510D02*
X183077357Y-106155103D01*
X183168175Y-106122792D01*
X183252191Y-106077112D01*
X183328008Y-106018599D01*
X183394232Y-105947786D01*
X183449466Y-105865210D01*
X183464207Y-105837167D01*
X183498553Y-105755111D01*
X183521082Y-105670250D01*
X183532713Y-105578344D01*
X183534867Y-105511200D01*
X183532801Y-105438309D01*
X183525659Y-105376128D01*
X183512148Y-105318859D01*
X183490973Y-105260707D01*
X183467465Y-105209284D01*
X183417187Y-105124988D01*
X183354365Y-105051553D01*
X183280074Y-104989778D01*
X183195392Y-104940461D01*
X183101392Y-104904402D01*
X183035357Y-104888365D01*
X183006541Y-104884130D01*
X182968585Y-104880876D01*
X182919774Y-104878532D01*
X182858395Y-104877029D01*
X182782732Y-104876298D01*
X182735455Y-104876200D01*
X182499133Y-104876200D01*
X182499429Y-104725917D01*
X182501158Y-104635423D01*
X182506352Y-104558953D01*
X182515599Y-104493842D01*
X182529490Y-104437428D01*
X182548612Y-104387045D01*
X182573555Y-104340030D01*
X182590567Y-104313769D01*
X182622139Y-104277955D01*
X182665010Y-104243198D01*
X182713765Y-104213271D01*
X182762990Y-104191944D01*
X182767534Y-104190491D01*
X182828009Y-104177617D01*
X182894612Y-104173074D01*
X182960649Y-104176851D01*
X183019428Y-104188935D01*
X183025748Y-104190967D01*
X183096301Y-104223335D01*
X183157274Y-104269264D01*
X183207972Y-104327898D01*
X183247698Y-104398383D01*
X183275757Y-104479863D01*
X183281613Y-104505427D01*
X183288165Y-104541150D01*
X183292936Y-104574381D01*
X183294981Y-104598441D01*
X183295000Y-104600072D01*
X183296786Y-104622499D01*
X183303824Y-104638083D01*
X183318632Y-104648022D01*
X183343731Y-104653519D01*
X183381639Y-104655772D01*
X183412520Y-104656067D01*
X183460538Y-104655662D01*
X183494031Y-104653096D01*
X183515410Y-104646347D01*
X183527082Y-104633388D01*
X183531456Y-104612195D01*
X183530940Y-104580745D01*
X183529408Y-104557822D01*
X183514560Y-104451354D01*
X183486105Y-104350132D01*
X183444992Y-104256130D01*
X183392167Y-104171326D01*
X183328577Y-104097694D01*
X183293810Y-104066320D01*
X183248972Y-104034308D01*
X183194012Y-104002719D01*
X183135493Y-103974875D01*
X183079977Y-103954098D01*
X183062167Y-103949033D01*
X183018072Y-103940815D01*
X182963519Y-103935069D01*
X182904842Y-103932081D01*
X182848375Y-103932139D01*
X182800451Y-103935528D01*
X182791472Y-103936783D01*
X182691591Y-103960555D01*
X182599991Y-103998800D01*
X182517416Y-104050826D01*
X182444613Y-104115942D01*
X182382326Y-104193457D01*
X182331301Y-104282678D01*
X182292284Y-104382915D01*
X182285406Y-104406300D01*
X182281707Y-104419915D01*
X182278527Y-104433068D01*
X182275826Y-104447091D01*
X182273565Y-104463319D01*
X182271704Y-104483086D01*
X182270204Y-104507724D01*
X182269025Y-104538567D01*
X182268128Y-104576950D01*
X182267472Y-104624206D01*
X182267020Y-104681668D01*
X182266730Y-104750670D01*
X182266563Y-104832547D01*
X182266480Y-104928630D01*
X182266441Y-105040255D01*
X182266440Y-105045534D01*
X182266430Y-105113267D01*
X182497419Y-105113267D01*
X182713431Y-105113267D01*
X182796936Y-105113710D01*
X182865101Y-105115084D01*
X182919496Y-105117458D01*
X182961691Y-105120899D01*
X182992847Y-105125398D01*
X183071938Y-105148037D01*
X183139965Y-105183446D01*
X183196660Y-105231383D01*
X183241756Y-105291604D01*
X183274986Y-105363869D01*
X183282547Y-105387674D01*
X183291477Y-105435569D01*
X183294839Y-105493597D01*
X183292908Y-105556001D01*
X183285964Y-105617022D01*
X183274283Y-105670901D01*
X183267953Y-105690228D01*
X183232647Y-105762468D01*
X183185193Y-105824074D01*
X183126932Y-105873650D01*
X183059207Y-105909797D01*
X183055556Y-105911243D01*
X183012760Y-105923065D01*
X182959488Y-105930659D01*
X182901721Y-105933786D01*
X182845440Y-105932209D01*
X182796626Y-105925691D01*
X182782116Y-105922113D01*
X182708879Y-105894028D01*
X182647350Y-105854973D01*
X182596630Y-105803998D01*
X182555820Y-105740156D01*
X182524022Y-105662500D01*
X182518244Y-105643799D01*
X182514041Y-105624905D01*
X182510562Y-105598390D01*
X182507706Y-105562493D01*
X182505368Y-105515451D01*
X182503445Y-105455503D01*
X182501834Y-105380886D01*
X182501418Y-105356683D01*
X182497419Y-105113267D01*
X182266430Y-105113267D01*
X182266423Y-105157908D01*
X182266458Y-105254696D01*
X182266584Y-105337245D01*
X182266840Y-105406901D01*
X182267264Y-105465013D01*
X182267895Y-105512926D01*
X182268774Y-105551988D01*
X182269938Y-105583546D01*
X182271426Y-105608946D01*
X182273278Y-105629537D01*
X182275533Y-105646665D01*
X182278229Y-105661676D01*
X182281405Y-105675919D01*
X182285101Y-105690739D01*
X182285109Y-105690772D01*
X182318797Y-105793825D01*
X182364219Y-105886027D01*
X182420743Y-105966643D01*
X182487733Y-106034943D01*
X182564556Y-106090193D01*
X182650577Y-106131662D01*
X182673976Y-106139965D01*
X182778046Y-106166477D01*
X182880897Y-106177480D01*
X182981133Y-106173510D01*
G36*
X186609899Y-106237874D02*
G01*
X186652895Y-106175668D01*
X186693309Y-106116949D01*
X186730016Y-106063368D01*
X186761894Y-106016576D01*
X186787820Y-105978223D01*
X186806669Y-105949959D01*
X186817320Y-105933435D01*
X186818779Y-105930957D01*
X186835476Y-105884525D01*
X186838507Y-105834451D01*
X186832318Y-105801626D01*
X186826532Y-105791174D01*
X186811926Y-105767946D01*
X186789176Y-105732934D01*
X186758960Y-105687129D01*
X186721955Y-105631522D01*
X186678836Y-105567106D01*
X186630282Y-105494872D01*
X186576968Y-105415811D01*
X186519572Y-105330915D01*
X186458770Y-105241176D01*
X186395239Y-105147585D01*
X186329656Y-105051134D01*
X186262698Y-104952814D01*
X186195042Y-104853617D01*
X186127364Y-104754535D01*
X186060342Y-104656558D01*
X185994651Y-104560680D01*
X185930970Y-104467890D01*
X185869974Y-104379182D01*
X185812340Y-104295545D01*
X185758746Y-104217973D01*
X185709868Y-104147456D01*
X185666383Y-104084987D01*
X185628968Y-104031556D01*
X185598299Y-103988155D01*
X185575053Y-103955777D01*
X185559908Y-103935411D01*
X185553540Y-103928051D01*
X185553483Y-103928041D01*
X185552754Y-103936340D01*
X185552049Y-103960644D01*
X185551372Y-104000023D01*
X185550728Y-104053549D01*
X185550122Y-104120291D01*
X185549558Y-104199323D01*
X185549041Y-104289713D01*
X185548576Y-104390534D01*
X185548168Y-104500857D01*
X185547820Y-104619752D01*
X185547538Y-104746291D01*
X185547327Y-104879544D01*
X185547191Y-105018583D01*
X185547134Y-105162478D01*
X185547133Y-105188203D01*
X185547177Y-105376713D01*
X185547309Y-105548707D01*
X185547534Y-105704601D01*
X185547854Y-105844813D01*
X185548272Y-105969758D01*
X185548792Y-106079855D01*
X185549415Y-106175519D01*
X185550146Y-106257168D01*
X185550988Y-106325219D01*
X185551942Y-106380087D01*
X185553014Y-106422191D01*
X185554204Y-106451947D01*
X185555517Y-106469771D01*
X185556490Y-106475315D01*
X185567488Y-106496481D01*
X185581030Y-106510279D01*
X185581334Y-106510446D01*
X185593472Y-106512396D01*
X185621529Y-106514122D01*
X185664493Y-106515605D01*
X185721349Y-106516824D01*
X185791086Y-106517760D01*
X185872689Y-106518394D01*
X185965147Y-106518704D01*
X186006092Y-106518733D01*
X186415364Y-106518733D01*
X186609899Y-106237874D01*
G37*
X186609899Y-106237874D02*
X186652895Y-106175668D01*
X186693309Y-106116949D01*
X186730016Y-106063368D01*
X186761894Y-106016576D01*
X186787820Y-105978223D01*
X186806669Y-105949959D01*
X186817320Y-105933435D01*
X186818779Y-105930957D01*
X186835476Y-105884525D01*
X186838507Y-105834451D01*
X186832318Y-105801626D01*
X186826532Y-105791174D01*
X186811926Y-105767946D01*
X186789176Y-105732934D01*
X186758960Y-105687129D01*
X186721955Y-105631522D01*
X186678836Y-105567106D01*
X186630282Y-105494872D01*
X186576968Y-105415811D01*
X186519572Y-105330915D01*
X186458770Y-105241176D01*
X186395239Y-105147585D01*
X186329656Y-105051134D01*
X186262698Y-104952814D01*
X186195042Y-104853617D01*
X186127364Y-104754535D01*
X186060342Y-104656558D01*
X185994651Y-104560680D01*
X185930970Y-104467890D01*
X185869974Y-104379182D01*
X185812340Y-104295545D01*
X185758746Y-104217973D01*
X185709868Y-104147456D01*
X185666383Y-104084987D01*
X185628968Y-104031556D01*
X185598299Y-103988155D01*
X185575053Y-103955777D01*
X185559908Y-103935411D01*
X185553540Y-103928051D01*
X185553483Y-103928041D01*
X185552754Y-103936340D01*
X185552049Y-103960644D01*
X185551372Y-104000023D01*
X185550728Y-104053549D01*
X185550122Y-104120291D01*
X185549558Y-104199323D01*
X185549041Y-104289713D01*
X185548576Y-104390534D01*
X185548168Y-104500857D01*
X185547820Y-104619752D01*
X185547538Y-104746291D01*
X185547327Y-104879544D01*
X185547191Y-105018583D01*
X185547134Y-105162478D01*
X185547133Y-105188203D01*
X185547177Y-105376713D01*
X185547309Y-105548707D01*
X185547534Y-105704601D01*
X185547854Y-105844813D01*
X185548272Y-105969758D01*
X185548792Y-106079855D01*
X185549415Y-106175519D01*
X185550146Y-106257168D01*
X185550988Y-106325219D01*
X185551942Y-106380087D01*
X185553014Y-106422191D01*
X185554204Y-106451947D01*
X185555517Y-106469771D01*
X185556490Y-106475315D01*
X185567488Y-106496481D01*
X185581030Y-106510279D01*
X185581334Y-106510446D01*
X185593472Y-106512396D01*
X185621529Y-106514122D01*
X185664493Y-106515605D01*
X185721349Y-106516824D01*
X185791086Y-106517760D01*
X185872689Y-106518394D01*
X185965147Y-106518704D01*
X186006092Y-106518733D01*
X186415364Y-106518733D01*
X186609899Y-106237874D01*
G36*
X189297867Y-106175210D02*
G01*
X189349836Y-106174888D01*
X189388916Y-106173785D01*
X189419149Y-106171440D01*
X189444577Y-106167391D01*
X189469240Y-106161174D01*
X189496833Y-106152443D01*
X189591341Y-106112737D01*
X189674708Y-106060313D01*
X189746970Y-105995136D01*
X189808161Y-105917167D01*
X189858318Y-105826369D01*
X189896217Y-105726785D01*
X189919804Y-105650900D01*
X189922498Y-105093904D01*
X189923002Y-104979750D01*
X189923315Y-104881175D01*
X189923414Y-104796825D01*
X189923276Y-104725347D01*
X189922879Y-104665388D01*
X189922200Y-104615593D01*
X189921217Y-104574609D01*
X189919906Y-104541082D01*
X189918246Y-104513659D01*
X189916212Y-104490987D01*
X189913784Y-104471711D01*
X189911883Y-104459782D01*
X189886637Y-104358177D01*
X189847873Y-104264520D01*
X189796610Y-104180042D01*
X189733867Y-104105975D01*
X189660662Y-104043549D01*
X189578012Y-103993996D01*
X189501067Y-103962909D01*
X189398977Y-103938583D01*
X189293567Y-103929735D01*
X189188985Y-103936708D01*
X189187800Y-103936882D01*
X189089698Y-103959516D01*
X188997888Y-103996860D01*
X188914002Y-104047741D01*
X188839675Y-104110982D01*
X188776542Y-104185408D01*
X188727028Y-104268227D01*
X188699278Y-104329621D01*
X188679410Y-104386528D01*
X188665514Y-104445711D01*
X188655682Y-104513931D01*
X188654421Y-104525537D01*
X188652822Y-104564301D01*
X188886093Y-104564301D01*
X188886673Y-104557084D01*
X188901295Y-104469306D01*
X188928292Y-104390984D01*
X188966926Y-104323108D01*
X189016459Y-104266670D01*
X189076152Y-104222660D01*
X189145267Y-104192069D01*
X189162400Y-104187040D01*
X189215545Y-104177534D01*
X189276741Y-104174006D01*
X189339095Y-104176364D01*
X189395712Y-104184515D01*
X189418961Y-104190499D01*
X189455619Y-104204311D01*
X189492818Y-104222230D01*
X189515102Y-104235546D01*
X189556324Y-104270728D01*
X189596071Y-104317154D01*
X189630220Y-104369345D01*
X189654037Y-104420139D01*
X189659667Y-104436291D01*
X189664150Y-104452000D01*
X189667646Y-104469446D01*
X189670316Y-104490810D01*
X189672321Y-104518273D01*
X189673822Y-104554015D01*
X189674978Y-104600217D01*
X189675951Y-104659060D01*
X189676870Y-104730150D01*
X189679984Y-104986267D01*
X189448371Y-104986267D01*
X189369911Y-104986026D01*
X189306008Y-104985103D01*
X189254289Y-104983196D01*
X189212380Y-104980003D01*
X189177910Y-104975222D01*
X189148505Y-104968552D01*
X189121792Y-104959690D01*
X189095399Y-104948336D01*
X189076231Y-104938939D01*
X189018249Y-104900360D01*
X188969227Y-104849099D01*
X188930332Y-104787510D01*
X188902733Y-104717945D01*
X188887598Y-104642758D01*
X188886093Y-104564301D01*
X188652822Y-104564301D01*
X188650994Y-104608597D01*
X188656931Y-104694001D01*
X188671597Y-104773990D01*
X188676114Y-104790719D01*
X188707604Y-104872580D01*
X188752740Y-104951215D01*
X188808999Y-105023570D01*
X188873858Y-105086585D01*
X188944793Y-105137205D01*
X188976133Y-105154202D01*
X189015220Y-105172784D01*
X189050805Y-105187858D01*
X189085353Y-105199830D01*
X189121325Y-105209103D01*
X189161185Y-105216081D01*
X189207397Y-105221170D01*
X189262424Y-105224773D01*
X189328728Y-105227295D01*
X189408772Y-105229140D01*
X189435450Y-105229616D01*
X189687333Y-105233909D01*
X189687333Y-105392977D01*
X189686349Y-105474478D01*
X189683111Y-105542020D01*
X189677195Y-105598476D01*
X189668174Y-105646723D01*
X189655622Y-105689633D01*
X189639115Y-105730082D01*
X189636605Y-105735417D01*
X189597052Y-105799409D01*
X189545578Y-105852889D01*
X189484330Y-105894769D01*
X189415455Y-105923959D01*
X189341101Y-105939371D01*
X189263416Y-105939915D01*
X189239181Y-105936924D01*
X189162868Y-105917371D01*
X189096213Y-105884062D01*
X189039590Y-105837404D01*
X188993374Y-105777805D01*
X188957938Y-105705670D01*
X188933657Y-105621406D01*
X188929789Y-105600930D01*
X188922975Y-105566007D01*
X188915818Y-105536840D01*
X188909491Y-105517958D01*
X188907332Y-105514147D01*
X188895218Y-105509436D01*
X188870466Y-105505888D01*
X188837335Y-105503566D01*
X188800085Y-105502534D01*
X188762977Y-105502855D01*
X188730268Y-105504592D01*
X188706220Y-105507808D01*
X188696733Y-105511027D01*
X188688338Y-105525606D01*
X188685317Y-105553208D01*
X188687179Y-105590972D01*
X188693430Y-105636034D01*
X188703580Y-105685534D01*
X188717137Y-105736609D01*
X188733610Y-105786396D01*
X188751513Y-105829899D01*
X188801158Y-105920724D01*
X188860035Y-105997608D01*
X188928953Y-106061302D01*
X189008723Y-106112556D01*
X189098981Y-106151711D01*
X189126270Y-106160866D01*
X189149835Y-106167301D01*
X189173647Y-106171485D01*
X189201675Y-106173887D01*
X189237891Y-106174976D01*
X189286266Y-106175222D01*
X189297867Y-106175210D01*
G37*
X189297867Y-106175210D02*
X189349836Y-106174888D01*
X189388916Y-106173785D01*
X189419149Y-106171440D01*
X189444577Y-106167391D01*
X189469240Y-106161174D01*
X189496833Y-106152443D01*
X189591341Y-106112737D01*
X189674708Y-106060313D01*
X189746970Y-105995136D01*
X189808161Y-105917167D01*
X189858318Y-105826369D01*
X189896217Y-105726785D01*
X189919804Y-105650900D01*
X189922498Y-105093904D01*
X189923002Y-104979750D01*
X189923315Y-104881175D01*
X189923414Y-104796825D01*
X189923276Y-104725347D01*
X189922879Y-104665388D01*
X189922200Y-104615593D01*
X189921217Y-104574609D01*
X189919906Y-104541082D01*
X189918246Y-104513659D01*
X189916212Y-104490987D01*
X189913784Y-104471711D01*
X189911883Y-104459782D01*
X189886637Y-104358177D01*
X189847873Y-104264520D01*
X189796610Y-104180042D01*
X189733867Y-104105975D01*
X189660662Y-104043549D01*
X189578012Y-103993996D01*
X189501067Y-103962909D01*
X189398977Y-103938583D01*
X189293567Y-103929735D01*
X189188985Y-103936708D01*
X189187800Y-103936882D01*
X189089698Y-103959516D01*
X188997888Y-103996860D01*
X188914002Y-104047741D01*
X188839675Y-104110982D01*
X188776542Y-104185408D01*
X188727028Y-104268227D01*
X188699278Y-104329621D01*
X188679410Y-104386528D01*
X188665514Y-104445711D01*
X188655682Y-104513931D01*
X188654421Y-104525537D01*
X188652822Y-104564301D01*
X188886093Y-104564301D01*
X188886673Y-104557084D01*
X188901295Y-104469306D01*
X188928292Y-104390984D01*
X188966926Y-104323108D01*
X189016459Y-104266670D01*
X189076152Y-104222660D01*
X189145267Y-104192069D01*
X189162400Y-104187040D01*
X189215545Y-104177534D01*
X189276741Y-104174006D01*
X189339095Y-104176364D01*
X189395712Y-104184515D01*
X189418961Y-104190499D01*
X189455619Y-104204311D01*
X189492818Y-104222230D01*
X189515102Y-104235546D01*
X189556324Y-104270728D01*
X189596071Y-104317154D01*
X189630220Y-104369345D01*
X189654037Y-104420139D01*
X189659667Y-104436291D01*
X189664150Y-104452000D01*
X189667646Y-104469446D01*
X189670316Y-104490810D01*
X189672321Y-104518273D01*
X189673822Y-104554015D01*
X189674978Y-104600217D01*
X189675951Y-104659060D01*
X189676870Y-104730150D01*
X189679984Y-104986267D01*
X189448371Y-104986267D01*
X189369911Y-104986026D01*
X189306008Y-104985103D01*
X189254289Y-104983196D01*
X189212380Y-104980003D01*
X189177910Y-104975222D01*
X189148505Y-104968552D01*
X189121792Y-104959690D01*
X189095399Y-104948336D01*
X189076231Y-104938939D01*
X189018249Y-104900360D01*
X188969227Y-104849099D01*
X188930332Y-104787510D01*
X188902733Y-104717945D01*
X188887598Y-104642758D01*
X188886093Y-104564301D01*
X188652822Y-104564301D01*
X188650994Y-104608597D01*
X188656931Y-104694001D01*
X188671597Y-104773990D01*
X188676114Y-104790719D01*
X188707604Y-104872580D01*
X188752740Y-104951215D01*
X188808999Y-105023570D01*
X188873858Y-105086585D01*
X188944793Y-105137205D01*
X188976133Y-105154202D01*
X189015220Y-105172784D01*
X189050805Y-105187858D01*
X189085353Y-105199830D01*
X189121325Y-105209103D01*
X189161185Y-105216081D01*
X189207397Y-105221170D01*
X189262424Y-105224773D01*
X189328728Y-105227295D01*
X189408772Y-105229140D01*
X189435450Y-105229616D01*
X189687333Y-105233909D01*
X189687333Y-105392977D01*
X189686349Y-105474478D01*
X189683111Y-105542020D01*
X189677195Y-105598476D01*
X189668174Y-105646723D01*
X189655622Y-105689633D01*
X189639115Y-105730082D01*
X189636605Y-105735417D01*
X189597052Y-105799409D01*
X189545578Y-105852889D01*
X189484330Y-105894769D01*
X189415455Y-105923959D01*
X189341101Y-105939371D01*
X189263416Y-105939915D01*
X189239181Y-105936924D01*
X189162868Y-105917371D01*
X189096213Y-105884062D01*
X189039590Y-105837404D01*
X188993374Y-105777805D01*
X188957938Y-105705670D01*
X188933657Y-105621406D01*
X188929789Y-105600930D01*
X188922975Y-105566007D01*
X188915818Y-105536840D01*
X188909491Y-105517958D01*
X188907332Y-105514147D01*
X188895218Y-105509436D01*
X188870466Y-105505888D01*
X188837335Y-105503566D01*
X188800085Y-105502534D01*
X188762977Y-105502855D01*
X188730268Y-105504592D01*
X188706220Y-105507808D01*
X188696733Y-105511027D01*
X188688338Y-105525606D01*
X188685317Y-105553208D01*
X188687179Y-105590972D01*
X188693430Y-105636034D01*
X188703580Y-105685534D01*
X188717137Y-105736609D01*
X188733610Y-105786396D01*
X188751513Y-105829899D01*
X188801158Y-105920724D01*
X188860035Y-105997608D01*
X188928953Y-106061302D01*
X189008723Y-106112556D01*
X189098981Y-106151711D01*
X189126270Y-106160866D01*
X189149835Y-106167301D01*
X189173647Y-106171485D01*
X189201675Y-106173887D01*
X189237891Y-106174976D01*
X189286266Y-106175222D01*
X189297867Y-106175210D01*
G36*
X181124345Y-106751197D02*
G01*
X181125712Y-106750417D01*
X181129592Y-106746757D01*
X181132748Y-106740045D01*
X181135272Y-106728602D01*
X181137256Y-106710750D01*
X181138791Y-106684808D01*
X181139970Y-106649099D01*
X181140884Y-106601943D01*
X181141625Y-106541661D01*
X181142284Y-106466575D01*
X181142458Y-106443730D01*
X181144683Y-106146200D01*
X181330361Y-106146200D01*
X181395702Y-106146261D01*
X181446061Y-106145719D01*
X181483382Y-106143488D01*
X181509610Y-106138479D01*
X181526689Y-106129607D01*
X181536564Y-106115784D01*
X181541180Y-106095923D01*
X181542480Y-106068938D01*
X181542409Y-106033741D01*
X181542400Y-106027667D01*
X181542510Y-105991173D01*
X181541548Y-105963038D01*
X181537569Y-105942179D01*
X181528631Y-105927512D01*
X181512794Y-105917953D01*
X181488113Y-105912418D01*
X181452646Y-105909825D01*
X181404452Y-105909090D01*
X181341587Y-105909128D01*
X181329923Y-105909133D01*
X181143806Y-105909133D01*
X181146673Y-105225450D01*
X181147222Y-105100504D01*
X181147773Y-104991323D01*
X181148352Y-104896741D01*
X181148988Y-104815590D01*
X181149708Y-104746702D01*
X181150541Y-104688911D01*
X181151513Y-104641048D01*
X181152652Y-104601947D01*
X181153987Y-104570439D01*
X181155545Y-104545358D01*
X181157353Y-104525537D01*
X181159440Y-104509806D01*
X181161834Y-104497000D01*
X181164227Y-104487181D01*
X181192333Y-104406267D01*
X181229487Y-104339395D01*
X181276066Y-104286064D01*
X181332449Y-104245771D01*
X181353912Y-104234956D01*
X181384376Y-104223060D01*
X181416772Y-104215407D01*
X181457065Y-104210803D01*
X181482395Y-104209253D01*
X181518647Y-104206660D01*
X181548975Y-104203035D01*
X181569058Y-104198966D01*
X181574150Y-104196769D01*
X181578922Y-104184690D01*
X181582358Y-104159931D01*
X181584448Y-104126691D01*
X181585184Y-104089171D01*
X181584559Y-104051570D01*
X181582563Y-104018089D01*
X181579190Y-103992929D01*
X181574573Y-103980427D01*
X181559881Y-103974704D01*
X181532264Y-103971375D01*
X181495543Y-103970336D01*
X181453542Y-103971481D01*
X181410082Y-103974705D01*
X181368986Y-103979903D01*
X181334077Y-103986970D01*
X181333798Y-103987043D01*
X181243524Y-104018767D01*
X181163629Y-104063834D01*
X181094191Y-104122151D01*
X181035285Y-104193622D01*
X180986987Y-104278152D01*
X180949376Y-104375648D01*
X180922526Y-104486014D01*
X180920321Y-104498426D01*
X180917883Y-104514859D01*
X180915761Y-104534653D01*
X180913934Y-104558987D01*
X180912383Y-104589043D01*
X180911087Y-104626002D01*
X180910024Y-104671045D01*
X180909174Y-104725354D01*
X180908518Y-104790109D01*
X180908034Y-104866491D01*
X180907701Y-104955682D01*
X180907500Y-105058863D01*
X180907410Y-105177215D01*
X180907400Y-105241376D01*
X180907400Y-105909133D01*
X180768180Y-105909133D01*
X180711404Y-105909223D01*
X180669350Y-105910544D01*
X180639812Y-105914676D01*
X180620581Y-105923201D01*
X180609452Y-105937697D01*
X180604216Y-105959745D01*
X180602667Y-105990926D01*
X180602600Y-106027667D01*
X180602724Y-106068311D01*
X180604569Y-106098416D01*
X180610342Y-106119561D01*
X180622250Y-106133328D01*
X180642500Y-106141295D01*
X180673300Y-106145043D01*
X180716856Y-106146152D01*
X180768180Y-106146200D01*
X180907400Y-106146200D01*
X180907400Y-106644228D01*
X180931285Y-106664031D01*
X180949225Y-106676275D01*
X180977853Y-106692944D01*
X181012476Y-106711380D01*
X181033180Y-106721704D01*
X181070842Y-106739317D01*
X181096658Y-106749505D01*
X181113526Y-106753165D01*
X181124345Y-106751197D01*
G37*
X181124345Y-106751197D02*
X181125712Y-106750417D01*
X181129592Y-106746757D01*
X181132748Y-106740045D01*
X181135272Y-106728602D01*
X181137256Y-106710750D01*
X181138791Y-106684808D01*
X181139970Y-106649099D01*
X181140884Y-106601943D01*
X181141625Y-106541661D01*
X181142284Y-106466575D01*
X181142458Y-106443730D01*
X181144683Y-106146200D01*
X181330361Y-106146200D01*
X181395702Y-106146261D01*
X181446061Y-106145719D01*
X181483382Y-106143488D01*
X181509610Y-106138479D01*
X181526689Y-106129607D01*
X181536564Y-106115784D01*
X181541180Y-106095923D01*
X181542480Y-106068938D01*
X181542409Y-106033741D01*
X181542400Y-106027667D01*
X181542510Y-105991173D01*
X181541548Y-105963038D01*
X181537569Y-105942179D01*
X181528631Y-105927512D01*
X181512794Y-105917953D01*
X181488113Y-105912418D01*
X181452646Y-105909825D01*
X181404452Y-105909090D01*
X181341587Y-105909128D01*
X181329923Y-105909133D01*
X181143806Y-105909133D01*
X181146673Y-105225450D01*
X181147222Y-105100504D01*
X181147773Y-104991323D01*
X181148352Y-104896741D01*
X181148988Y-104815590D01*
X181149708Y-104746702D01*
X181150541Y-104688911D01*
X181151513Y-104641048D01*
X181152652Y-104601947D01*
X181153987Y-104570439D01*
X181155545Y-104545358D01*
X181157353Y-104525537D01*
X181159440Y-104509806D01*
X181161834Y-104497000D01*
X181164227Y-104487181D01*
X181192333Y-104406267D01*
X181229487Y-104339395D01*
X181276066Y-104286064D01*
X181332449Y-104245771D01*
X181353912Y-104234956D01*
X181384376Y-104223060D01*
X181416772Y-104215407D01*
X181457065Y-104210803D01*
X181482395Y-104209253D01*
X181518647Y-104206660D01*
X181548975Y-104203035D01*
X181569058Y-104198966D01*
X181574150Y-104196769D01*
X181578922Y-104184690D01*
X181582358Y-104159931D01*
X181584448Y-104126691D01*
X181585184Y-104089171D01*
X181584559Y-104051570D01*
X181582563Y-104018089D01*
X181579190Y-103992929D01*
X181574573Y-103980427D01*
X181559881Y-103974704D01*
X181532264Y-103971375D01*
X181495543Y-103970336D01*
X181453542Y-103971481D01*
X181410082Y-103974705D01*
X181368986Y-103979903D01*
X181334077Y-103986970D01*
X181333798Y-103987043D01*
X181243524Y-104018767D01*
X181163629Y-104063834D01*
X181094191Y-104122151D01*
X181035285Y-104193622D01*
X180986987Y-104278152D01*
X180949376Y-104375648D01*
X180922526Y-104486014D01*
X180920321Y-104498426D01*
X180917883Y-104514859D01*
X180915761Y-104534653D01*
X180913934Y-104558987D01*
X180912383Y-104589043D01*
X180911087Y-104626002D01*
X180910024Y-104671045D01*
X180909174Y-104725354D01*
X180908518Y-104790109D01*
X180908034Y-104866491D01*
X180907701Y-104955682D01*
X180907500Y-105058863D01*
X180907410Y-105177215D01*
X180907400Y-105241376D01*
X180907400Y-105909133D01*
X180768180Y-105909133D01*
X180711404Y-105909223D01*
X180669350Y-105910544D01*
X180639812Y-105914676D01*
X180620581Y-105923201D01*
X180609452Y-105937697D01*
X180604216Y-105959745D01*
X180602667Y-105990926D01*
X180602600Y-106027667D01*
X180602724Y-106068311D01*
X180604569Y-106098416D01*
X180610342Y-106119561D01*
X180622250Y-106133328D01*
X180642500Y-106141295D01*
X180673300Y-106145043D01*
X180716856Y-106146152D01*
X180768180Y-106146200D01*
X180907400Y-106146200D01*
X180907400Y-106644228D01*
X180931285Y-106664031D01*
X180949225Y-106676275D01*
X180977853Y-106692944D01*
X181012476Y-106711380D01*
X181033180Y-106721704D01*
X181070842Y-106739317D01*
X181096658Y-106749505D01*
X181113526Y-106753165D01*
X181124345Y-106751197D01*
G36*
X188070026Y-106154216D02*
G01*
X188102200Y-106151201D01*
X188123780Y-106143765D01*
X188136878Y-106130499D01*
X188143607Y-106109993D01*
X188146078Y-106080838D01*
X188146406Y-106041625D01*
X188146400Y-106031900D01*
X188146227Y-105990026D01*
X188144245Y-105958948D01*
X188138259Y-105937059D01*
X188126073Y-105922749D01*
X188105491Y-105914410D01*
X188074319Y-105910433D01*
X188030360Y-105909210D01*
X187978845Y-105909134D01*
X187908949Y-105908099D01*
X187852433Y-105904588D01*
X187805848Y-105897987D01*
X187765744Y-105887684D01*
X187728671Y-105873067D01*
X187703103Y-105860172D01*
X187641985Y-105817606D01*
X187590238Y-105762224D01*
X187549447Y-105696247D01*
X187521200Y-105621899D01*
X187515111Y-105596900D01*
X187513001Y-105584267D01*
X187511142Y-105566838D01*
X187509520Y-105543600D01*
X187508121Y-105513541D01*
X187506928Y-105475646D01*
X187505928Y-105428902D01*
X187505106Y-105372296D01*
X187504447Y-105304815D01*
X187503936Y-105225446D01*
X187503559Y-105133175D01*
X187503300Y-105026989D01*
X187503145Y-104905874D01*
X187503080Y-104771927D01*
X187502953Y-104617599D01*
X187502634Y-104480183D01*
X187502123Y-104359658D01*
X187501420Y-104256003D01*
X187500524Y-104169197D01*
X187499435Y-104099220D01*
X187498153Y-104046052D01*
X187496678Y-104009670D01*
X187495009Y-103990056D01*
X187494169Y-103986644D01*
X187488904Y-103979629D01*
X187479982Y-103974948D01*
X187464329Y-103972138D01*
X187438872Y-103970738D01*
X187400537Y-103970287D01*
X187385139Y-103970267D01*
X187338358Y-103970830D01*
X187306113Y-103972689D01*
X187286039Y-103976096D01*
X187275771Y-103981302D01*
X187275126Y-103982012D01*
X187273401Y-103988733D01*
X187271901Y-104004922D01*
X187270621Y-104031269D01*
X187269555Y-104068467D01*
X187268696Y-104117204D01*
X187268039Y-104178171D01*
X187267577Y-104252060D01*
X187267305Y-104339561D01*
X187267217Y-104441365D01*
X187267305Y-104558162D01*
X187267565Y-104690642D01*
X187267896Y-104809629D01*
X187270415Y-105625500D01*
X187289859Y-105688768D01*
X187328741Y-105789362D01*
X187379968Y-105878887D01*
X187443096Y-105956811D01*
X187517683Y-106022601D01*
X187603286Y-106075725D01*
X187617233Y-106082656D01*
X187667220Y-106104996D01*
X187714929Y-106122041D01*
X187764125Y-106134548D01*
X187818577Y-106143274D01*
X187882050Y-106148976D01*
X187958310Y-106152411D01*
X187965442Y-106152621D01*
X188025144Y-106154220D01*
X188070026Y-106154216D01*
G37*
X188070026Y-106154216D02*
X188102200Y-106151201D01*
X188123780Y-106143765D01*
X188136878Y-106130499D01*
X188143607Y-106109993D01*
X188146078Y-106080838D01*
X188146406Y-106041625D01*
X188146400Y-106031900D01*
X188146227Y-105990026D01*
X188144245Y-105958948D01*
X188138259Y-105937059D01*
X188126073Y-105922749D01*
X188105491Y-105914410D01*
X188074319Y-105910433D01*
X188030360Y-105909210D01*
X187978845Y-105909134D01*
X187908949Y-105908099D01*
X187852433Y-105904588D01*
X187805848Y-105897987D01*
X187765744Y-105887684D01*
X187728671Y-105873067D01*
X187703103Y-105860172D01*
X187641985Y-105817606D01*
X187590238Y-105762224D01*
X187549447Y-105696247D01*
X187521200Y-105621899D01*
X187515111Y-105596900D01*
X187513001Y-105584267D01*
X187511142Y-105566838D01*
X187509520Y-105543600D01*
X187508121Y-105513541D01*
X187506928Y-105475646D01*
X187505928Y-105428902D01*
X187505106Y-105372296D01*
X187504447Y-105304815D01*
X187503936Y-105225446D01*
X187503559Y-105133175D01*
X187503300Y-105026989D01*
X187503145Y-104905874D01*
X187503080Y-104771927D01*
X187502953Y-104617599D01*
X187502634Y-104480183D01*
X187502123Y-104359658D01*
X187501420Y-104256003D01*
X187500524Y-104169197D01*
X187499435Y-104099220D01*
X187498153Y-104046052D01*
X187496678Y-104009670D01*
X187495009Y-103990056D01*
X187494169Y-103986644D01*
X187488904Y-103979629D01*
X187479982Y-103974948D01*
X187464329Y-103972138D01*
X187438872Y-103970738D01*
X187400537Y-103970287D01*
X187385139Y-103970267D01*
X187338358Y-103970830D01*
X187306113Y-103972689D01*
X187286039Y-103976096D01*
X187275771Y-103981302D01*
X187275126Y-103982012D01*
X187273401Y-103988733D01*
X187271901Y-104004922D01*
X187270621Y-104031269D01*
X187269555Y-104068467D01*
X187268696Y-104117204D01*
X187268039Y-104178171D01*
X187267577Y-104252060D01*
X187267305Y-104339561D01*
X187267217Y-104441365D01*
X187267305Y-104558162D01*
X187267565Y-104690642D01*
X187267896Y-104809629D01*
X187270415Y-105625500D01*
X187289859Y-105688768D01*
X187328741Y-105789362D01*
X187379968Y-105878887D01*
X187443096Y-105956811D01*
X187517683Y-106022601D01*
X187603286Y-106075725D01*
X187617233Y-106082656D01*
X187667220Y-106104996D01*
X187714929Y-106122041D01*
X187764125Y-106134548D01*
X187818577Y-106143274D01*
X187882050Y-106148976D01*
X187958310Y-106152411D01*
X187965442Y-106152621D01*
X188025144Y-106154220D01*
X188070026Y-106154216D01*
G36*
X185422252Y-107920726D02*
G01*
X185442807Y-107911610D01*
X185449856Y-107903173D01*
X185465607Y-107882082D01*
X185489159Y-107849632D01*
X185519611Y-107807114D01*
X185556061Y-107755823D01*
X185597609Y-107697051D01*
X185643353Y-107632092D01*
X185692393Y-107562240D01*
X185743827Y-107488787D01*
X185796753Y-107413027D01*
X185850272Y-107336253D01*
X185903481Y-107259758D01*
X185955479Y-107184836D01*
X186005366Y-107112781D01*
X186052240Y-107044884D01*
X186095200Y-106982441D01*
X186133345Y-106926743D01*
X186165773Y-106879084D01*
X186191585Y-106840758D01*
X186209877Y-106813058D01*
X186219750Y-106797277D01*
X186221149Y-106794568D01*
X186220872Y-106792342D01*
X186217586Y-106790376D01*
X186210326Y-106788654D01*
X186198124Y-106787158D01*
X186180015Y-106785874D01*
X186155032Y-106784786D01*
X186122209Y-106783879D01*
X186080579Y-106783135D01*
X186029176Y-106782540D01*
X185967035Y-106782077D01*
X185893188Y-106781732D01*
X185806670Y-106781488D01*
X185706513Y-106781328D01*
X185591753Y-106781239D01*
X185461422Y-106781203D01*
X185403200Y-106781200D01*
X185266404Y-106781216D01*
X185145571Y-106781276D01*
X185039728Y-106781396D01*
X184947903Y-106781592D01*
X184869126Y-106781881D01*
X184802424Y-106782278D01*
X184746827Y-106782801D01*
X184701362Y-106783466D01*
X184665058Y-106784289D01*
X184636944Y-106785286D01*
X184616048Y-106786475D01*
X184601399Y-106787870D01*
X184592025Y-106789490D01*
X184586954Y-106791349D01*
X184585215Y-106793465D01*
X184585411Y-106794985D01*
X184591665Y-106805799D01*
X184606623Y-106829017D01*
X184629394Y-106863351D01*
X184659086Y-106907514D01*
X184694807Y-106960217D01*
X184735667Y-107020172D01*
X184780774Y-107086091D01*
X184829235Y-107156684D01*
X184880161Y-107230665D01*
X184932659Y-107306745D01*
X184985838Y-107383635D01*
X185038807Y-107460047D01*
X185090673Y-107534693D01*
X185140546Y-107606285D01*
X185187534Y-107673535D01*
X185230745Y-107735154D01*
X185269289Y-107789854D01*
X185302273Y-107836346D01*
X185328806Y-107873343D01*
X185347997Y-107899556D01*
X185358954Y-107913698D01*
X185361029Y-107915821D01*
X185390270Y-107923589D01*
X185422252Y-107920726D01*
G37*
X185422252Y-107920726D02*
X185442807Y-107911610D01*
X185449856Y-107903173D01*
X185465607Y-107882082D01*
X185489159Y-107849632D01*
X185519611Y-107807114D01*
X185556061Y-107755823D01*
X185597609Y-107697051D01*
X185643353Y-107632092D01*
X185692393Y-107562240D01*
X185743827Y-107488787D01*
X185796753Y-107413027D01*
X185850272Y-107336253D01*
X185903481Y-107259758D01*
X185955479Y-107184836D01*
X186005366Y-107112781D01*
X186052240Y-107044884D01*
X186095200Y-106982441D01*
X186133345Y-106926743D01*
X186165773Y-106879084D01*
X186191585Y-106840758D01*
X186209877Y-106813058D01*
X186219750Y-106797277D01*
X186221149Y-106794568D01*
X186220872Y-106792342D01*
X186217586Y-106790376D01*
X186210326Y-106788654D01*
X186198124Y-106787158D01*
X186180015Y-106785874D01*
X186155032Y-106784786D01*
X186122209Y-106783879D01*
X186080579Y-106783135D01*
X186029176Y-106782540D01*
X185967035Y-106782077D01*
X185893188Y-106781732D01*
X185806670Y-106781488D01*
X185706513Y-106781328D01*
X185591753Y-106781239D01*
X185461422Y-106781203D01*
X185403200Y-106781200D01*
X185266404Y-106781216D01*
X185145571Y-106781276D01*
X185039728Y-106781396D01*
X184947903Y-106781592D01*
X184869126Y-106781881D01*
X184802424Y-106782278D01*
X184746827Y-106782801D01*
X184701362Y-106783466D01*
X184665058Y-106784289D01*
X184636944Y-106785286D01*
X184616048Y-106786475D01*
X184601399Y-106787870D01*
X184592025Y-106789490D01*
X184586954Y-106791349D01*
X184585215Y-106793465D01*
X184585411Y-106794985D01*
X184591665Y-106805799D01*
X184606623Y-106829017D01*
X184629394Y-106863351D01*
X184659086Y-106907514D01*
X184694807Y-106960217D01*
X184735667Y-107020172D01*
X184780774Y-107086091D01*
X184829235Y-107156684D01*
X184880161Y-107230665D01*
X184932659Y-107306745D01*
X184985838Y-107383635D01*
X185038807Y-107460047D01*
X185090673Y-107534693D01*
X185140546Y-107606285D01*
X185187534Y-107673535D01*
X185230745Y-107735154D01*
X185269289Y-107789854D01*
X185302273Y-107836346D01*
X185328806Y-107873343D01*
X185347997Y-107899556D01*
X185358954Y-107913698D01*
X185361029Y-107915821D01*
X185390270Y-107923589D01*
X185422252Y-107920726D01*
%TD*%
M02*
