M48
; DRILL file {KiCad 5.1.9-73d0e3b20d~88~ubuntu20.04.1} date Sat Oct 30 14:27:53 2021
; FORMAT={-:-/ absolute / inch / decimal}
; #@! TF.CreationDate,2021-10-30T14:27:53+09:00
; #@! TF.GenerationSoftware,Kicad,Pcbnew,5.1.9-73d0e3b20d~88~ubuntu20.04.1
; #@! TF.FileFunction,Plated,1,2,PTH
FMAT,2
INCH
T1C0.0157
T2C0.0295
T3C0.0315
T4C0.0354
T5C0.0394
T6C0.0984
%
G90
G05
T1
X5.4528Y-4.0551
X5.4528Y-4.2126
X5.5512Y-4.0551
X5.5512Y-4.2126
X5.6496Y-4.0551
X5.6496Y-4.2126
X5.748Y-4.0551
X5.748Y-4.2126
X5.8465Y-4.0551
X5.8465Y-4.2126
X5.9449Y-4.0551
X5.9449Y-4.2126
X6.5748Y-4.2126
X6.8504Y-4.2126
T2
X6.4173Y-4.0945
X6.4173Y-4.1445
X6.4173Y-4.1945
X6.7126Y-4.0642
X6.7126Y-4.1142
X6.7126Y-4.1642
T3
X5.3543Y-4.1339
X5.5512Y-4.1339
X6.1205Y-4.1339
X6.2205Y-4.1339
X6.9488Y-4.1732
X7.0488Y-4.1732
T4
X5.6843Y-4.1339
X5.9843Y-4.1339
X7.5772Y-4.1339
X7.6772Y-4.1339
T5
X7.8937Y-4.0929
X7.8937Y-4.1929
T6
X4.252Y-4.1339
T0
M30
